<?xml version="1.0" standalone="no"?>
<!DOCTYPE svg PUBLIC "-//W3C//DTD SVG 20010904//EN"
 "http://www.w3.org/TR/2001/REC-SVG-20010904/DTD/svg10.dtd">
<svg version="1.0" xmlns="http://www.w3.org/2000/svg"
 width="1024.000000pt" height="1024.000000pt" viewBox="0 0 1024.000000 1024.000000"
 preserveAspectRatio="xMidYMid meet">
<metadata>
Created by potrace 1.14, written by Peter Selinger 2001-2017
</metadata>
<g transform="translate(0.000000,1024.000000) scale(0.100000,-0.100000)"
fill="#000000" stroke="none">
<path d="M3825 9541 c-90 -39 -99 -181 -14 -229 l29 -17 0 -277 0 -278 30 0
30 0 0 277 0 277 31 32 c54 55 50 144 -8 196 -24 22 -71 31 -98 19z"/>
<path d="M4560 9520 c-16 -29 -9 -91 12 -104 13 -8 23 -6 44 10 44 32 51 50
34 82 -21 36 -73 43 -90 12z"/>
<path d="M5026 9531 c-4 -6 -18 -11 -31 -11 -41 0 -130 -39 -172 -75 -129
-110 -134 -263 -16 -410 96 -118 229 -152 360 -91 112 51 193 164 201 278 10
142 -127 287 -297 314 -24 4 -41 2 -45 -5z m98 -82 c61 -15 110 -58 125 -111
7 -24 20 -51 28 -60 8 -9 13 -25 11 -35 -4 -23 -110 -41 -258 -43 -84 -2 -98
-4 -70 -11 19 -5 89 -6 155 -2 169 9 161 10 157 -12 -7 -37 -39 -102 -63 -125
-36 -34 -119 -70 -162 -70 -99 0 -237 128 -237 219 0 17 5 20 33 16 29 -5 28
-4 -10 12 -24 9 -43 24 -43 32 0 24 77 145 102 160 62 38 154 50 232 30z"/>
<path d="M4905 9332 c-20 -5 -31 -14 -33 -29 -4 -30 27 -35 213 -31 137 3 150
5 153 22 2 10 0 22 -5 26 -11 11 -290 21 -328 12z"/>
<path d="M4944 9149 c-3 -5 43 -9 101 -9 61 0 104 4 101 9 -8 12 -195 11 -202
0z"/>
<path d="M5525 9499 c-16 -10 -42 -19 -57 -19 -34 0 -35 -6 -3 -52 24 -36 103
-98 123 -98 21 0 111 53 117 68 3 10 -1 20 -12 25 -10 6 -36 30 -58 54 -45 47
-65 51 -110 22z"/>
<path d="M6041 9469 c-170 -33 -301 -202 -302 -388 -1 -110 36 -196 113 -268
91 -83 184 -118 295 -111 145 10 263 90 329 223 35 71 36 76 32 166 -4 113
-31 181 -102 257 -90 96 -240 146 -365 121z m107 -126 l3 -41 -56 -13 c-74
-16 -127 -57 -159 -121 -44 -89 -30 -153 58 -261 48 -60 51 -77 12 -77 -62 0
-148 111 -168 216 -10 55 -9 64 15 122 30 74 79 141 127 172 43 29 106 50 140
47 22 -2 25 -7 28 -44z m57 -166 c63 -36 80 -91 51 -162 -16 -38 -77 -75 -122
-75 -36 0 -101 68 -109 114 -8 38 9 79 47 112 44 40 77 43 133 11z"/>
<path d="M4257 9367 c-30 -39 -68 -85 -84 -102 -16 -16 -39 -46 -50 -65 -12
-19 -35 -48 -52 -64 -17 -17 -31 -38 -31 -47 0 -10 20 -32 44 -48 43 -30 196
-195 196 -212 0 -21 24 -1 162 134 l145 143 -93 99 c-51 55 -110 128 -130 163
-20 34 -40 65 -44 67 -4 3 -32 -28 -63 -68z m77 -139 c8 -12 34 -41 57 -65
l42 -44 -59 -60 c-32 -32 -63 -59 -69 -59 -5 1 -34 23 -64 50 l-54 49 27 33
c15 18 41 52 58 76 18 23 35 42 39 42 4 0 15 -10 23 -22z"/>
<path d="M6614 9386 c-6 -7 -17 -22 -23 -34 -10 -19 -8 -26 15 -47 34 -32 53
-29 76 11 18 30 18 32 -3 58 -22 28 -47 33 -65 12z"/>
<path d="M7030 9350 c-8 -5 -30 -10 -48 -10 -49 0 -155 -103 -171 -165 -23
-93 -14 -134 47 -197 l35 -37 -27 -62 c-40 -87 -39 -159 4 -245 22 -45 45 -74
73 -95 86 -61 78 -19 75 -394 l-3 -334 24 -6 c13 -3 25 -4 28 -1 17 16 23 118
23 388 l0 306 44 26 c124 73 168 209 111 348 -24 58 -24 63 -8 72 35 19 93 90
99 122 12 64 -22 152 -84 217 -56 58 -178 95 -222 67z m113 -74 c63 -27 117
-113 117 -186 0 -21 -33 -80 -66 -119 -2 -3 -14 5 -27 16 -55 51 -118 57 -187
17 -50 -29 -51 -28 -91 49 -18 34 -19 45 -9 92 13 63 38 98 88 125 44 23 129
26 175 6z m-47 -339 c59 -33 94 -107 94 -198 0 -54 -3 -63 -37 -100 -20 -22
-49 -47 -65 -55 -25 -13 -32 -13 -64 2 -19 9 -50 35 -69 57 -33 38 -35 45 -35
109 0 83 15 123 64 166 39 34 75 40 112 19z"/>
<path d="M3359 9324 c-6 -8 -18 -14 -26 -14 -23 0 -106 -46 -135 -75 -15 -15
-40 -53 -55 -84 -24 -48 -28 -69 -28 -141 0 -75 3 -91 29 -138 75 -135 228
-196 372 -148 96 32 159 106 189 223 14 55 14 68 1 127 -17 71 -46 125 -92
168 -61 57 -231 111 -255 82z m112 -95 c122 -41 189 -201 131 -315 -70 -137
-237 -160 -344 -47 -94 99 -65 277 57 341 59 30 107 37 156 21z"/>
<path d="M3356 9089 c-23 -18 -26 -28 -26 -80 0 -74 20 -99 80 -99 60 0 90 33
90 100 0 41 -5 56 -25 75 -30 31 -82 33 -119 4z"/>
<path d="M5492 9180 c-15 -24 2 -74 36 -103 20 -19 22 -18 56 8 l36 27 -20 28
c-22 30 -62 60 -82 60 -7 0 -19 -9 -26 -20z"/>
<path d="M6657 9134 c-24 -25 7 -82 39 -70 24 9 15 70 -11 74 -12 2 -24 0 -28
-4z"/>
<path d="M2790 9117 c-32 -16 -60 -72 -60 -119 0 -29 8 -47 36 -78 31 -34 42
-40 76 -40 46 0 80 20 108 65 27 43 25 78 -6 125 -36 55 -100 74 -154 47z"/>
<path d="M7596 9076 c-6 -30 -11 -34 -49 -42 -38 -8 -42 -12 -45 -42 -3 -29 4
-40 52 -88 67 -65 90 -68 135 -19 17 19 36 35 41 35 5 0 17 11 26 25 23 35 12
70 -26 83 -20 7 -30 18 -30 31 0 41 -11 51 -55 51 -41 0 -43 -2 -49 -34z m64
-91 c0 -15 -27 -28 -41 -19 -13 7 -11 28 3 42 13 13 38 -2 38 -23z"/>
<path d="M7855 9058 c-17 -50 -8 -70 28 -66 29 3 32 6 32 38 0 31 -3 35 -28
38 -16 2 -29 -2 -32 -10z"/>
<path d="M5481 8967 c7 -15 16 -27 21 -27 14 0 9 16 -13 36 -21 19 -21 19 -8
-9z"/>
<path d="M4656 8958 c-22 -32 -20 -64 6 -82 30 -21 51 -20 73 4 20 23 23 63 5
85 -19 23 -66 19 -84 -7z"/>
<path d="M5492 8918 c-16 -16 -15 -53 3 -88 19 -36 64 -41 95 -10 43 43 10
110 -53 110 -18 0 -38 -5 -45 -12z"/>
<path d="M1794 8844 c3 -9 6 -29 6 -45 0 -27 2 -29 40 -29 l40 0 0 45 0 45
-46 0 c-38 0 -45 -3 -40 -16z"/>
<path d="M2013 8853 c-19 -4 -23 -11 -23 -44 0 -38 1 -39 34 -39 31 0 34 3 39
37 9 53 5 57 -50 46z"/>
<path d="M2675 8853 c-38 -9 -35 -19 5 -18 22 0 39 4 37 9 -4 12 -17 15 -42 9z"/>
<path d="M1425 8841 c-3 -5 0 -13 6 -17 7 -4 9 -3 5 4 -3 5 0 13 6 15 9 4 10
6 1 6 -6 1 -14 -3 -18 -8z"/>
<path d="M1483 8825 c5 -27 -16 -46 -40 -38 -7 3 -13 0 -13 -6 0 -14 47 -14
55 0 11 17 12 69 2 69 -5 0 -7 -11 -4 -25z"/>
<path d="M1608 8810 l-4 -40 37 0 c34 0 37 3 42 33 6 42 2 47 -38 47 -31 0
-33 -2 -37 -40z"/>
<path d="M2168 8810 l-4 -41 46 3 c44 3 45 4 48 41 l3 37 -44 0 -45 0 -4 -40z"/>
<path d="M2390 8790 c0 -5 5 -10 11 -10 5 0 7 5 4 10 -3 6 -8 10 -11 10 -2 0
-4 -4 -4 -10z"/>
<path d="M8055 8789 c-22 -5 -48 -10 -57 -10 -10 0 -20 -4 -23 -9 -3 -6 8 -8
25 -6 22 2 35 -2 47 -18 9 -12 13 -14 10 -5 -7 21 10 48 21 32 7 -12 165 -26
157 -13 -2 4 15 3 38 -1 70 -13 97 -21 103 -30 3 -5 11 -9 17 -9 7 0 -1 9 -18
19 -63 41 -243 68 -320 50z m158 -16 c-7 -2 -21 -2 -30 0 -10 3 -4 5 12 5 17
0 24 -2 18 -5z"/>
<path d="M2640 8786 c0 -9 40 -13 46 -5 3 5 -6 9 -20 9 -14 0 -26 -2 -26 -4z"/>
<path d="M6539 8773 c-50 -63 -52 -117 -8 -168 47 -53 85 -49 133 12 46 59 56
93 31 107 -10 6 -29 23 -43 39 -30 33 -90 38 -113 10z"/>
<path d="M7436 8769 c-31 -25 -33 -57 -5 -93 38 -48 99 -21 99 45 0 25 -39 69
-60 69 -4 0 -19 -9 -34 -21z"/>
<path d="M2897 8720 c-46 -9 -51 -13 -38 -38 10 -19 50 -32 101 -32 15 0 44
-7 63 -15 39 -16 62 -12 71 12 9 23 -4 62 -24 73 -21 11 -116 11 -173 0z"/>
<path d="M4560 8687 c-3 -3 -30 -7 -60 -10 -104 -11 -545 -86 -620 -106 -41
-11 -154 -48 -250 -82 l-175 -62 -547 -1 c-300 -1 -550 -4 -554 -8 -4 -5 22
-8 58 -8 l65 0 -1 -602 -2 -603 39 -43 c21 -24 48 -64 59 -88 l19 -45 346 2
c207 0 349 -3 355 -9 5 -5 8 -36 6 -68 l-3 -59 -50 -6 c-27 -4 -200 -10 -384
-13 -292 -5 -332 -4 -321 9 10 12 7 24 -15 62 -41 71 -93 143 -137 189 l-39
41 0 509 c1 280 -2 530 -5 557 -7 49 -16 56 -48 32 -19 -14 -20 -38 -29 -561
l-9 -547 50 -51 c52 -53 192 -233 192 -246 0 -12 -57 -20 -91 -13 -21 4 -45
24 -78 62 -25 31 -79 88 -119 126 l-72 71 0 552 0 552 -34 0 c-22 0 -36 -6
-40 -17 -4 -9 -6 -269 -5 -577 l2 -561 96 -100 c53 -56 115 -123 138 -149 l42
-48 53 5 c219 25 861 12 880 -17 4 -6 8 -35 8 -63 l0 -53 -72 0 c-40 0 -266
-2 -501 -4 l-428 -5 -10 29 c-14 39 -49 60 -100 60 -35 0 -47 -6 -75 -36 -46
-48 -47 -99 -3 -149 26 -30 37 -35 73 -35 33 0 51 7 82 33 l39 32 280 -7 c433
-10 826 -25 832 -32 3 -3 12 -1 20 5 10 9 13 50 13 171 l0 160 199 206 c110
114 219 231 242 261 l43 54 225 -7 c124 -3 289 -2 366 3 l140 8 49 -56 c27
-31 143 -149 257 -264 l209 -207 0 -154 0 -153 413 -6 412 -7 30 35 c45 52 95
69 157 54 40 -9 55 -19 79 -51 54 -75 48 -151 -17 -208 -64 -56 -166 -34 -219
46 l-20 31 -361 6 c-198 3 -386 3 -417 0 l-57 -6 0 -144 c0 -152 -4 -168 -49
-216 l-26 -28 452 3 452 3 33 36 c48 51 89 65 147 51 106 -28 146 -157 75
-241 -55 -65 -140 -58 -214 17 l-45 46 -456 -3 c-331 -2 -462 0 -478 9 -20 10
-37 -4 -205 -170 -127 -125 -191 -181 -207 -182 -13 -1 -179 -1 -369 0 l-345
2 -247 248 -248 248 0 167 c0 91 -3 168 -7 170 -8 5 -35 0 -148 -22 -27 -5
-117 -14 -199 -20 -82 -6 -154 -15 -159 -20 -13 -13 -15 -146 -4 -158 5 -4 86
-11 180 -14 95 -4 173 -7 175 -8 7 -4 0 -60 -11 -81 -8 -15 -17 -48 -20 -74
-7 -48 -21 -76 -38 -76 -4 0 -9 30 -11 68 l-3 67 -124 -3 c-69 -1 -127 -4
-128 -6 -2 -2 -1 -39 3 -81 7 -73 9 -79 37 -94 72 -39 92 -57 94 -84 2 -32
-15 -46 -31 -25 -22 30 -54 39 -95 28 -68 -18 -85 -64 -51 -135 32 -66 74 -70
137 -12 l22 20 55 -44 c52 -42 55 -47 61 -100 l7 -56 200 -6 c110 -3 202 -8
205 -11 3 -3 2 -20 -3 -38 l-10 -33 -196 -5 c-108 -3 -198 -7 -201 -10 -2 -3
-2 -44 1 -92 l5 -88 313 0 c224 0 321 3 340 12 23 11 28 10 46 -12 22 -27 18
-64 -10 -92 -16 -16 -37 -16 -257 -8 -132 5 -284 9 -337 10 l-98 0 0 -59 c0
-32 3 -72 6 -88 l6 -30 311 -8 c172 -4 420 -9 552 -9 l240 -2 3 -42 3 -42
-560 0 -561 0 -5 -23 c-4 -13 -5 -50 -3 -82 l3 -60 98 -5 c53 -3 97 -8 97 -12
0 -5 0 -19 0 -33 0 -19 -7 -26 -37 -34 -21 -6 -62 -11 -90 -11 -30 0 -53 -5
-53 -10 0 -29 36 -72 115 -140 48 -41 120 -104 159 -139 39 -35 129 -112 201
-170 71 -58 161 -135 200 -171 38 -36 104 -95 145 -130 41 -36 117 -104 169
-152 52 -49 98 -88 103 -88 4 0 8 174 8 388 l0 387 193 199 193 198 635 -3
634 -4 35 34 c59 57 106 65 177 30 87 -42 117 -134 72 -220 -51 -101 -217 -91
-269 16 l-22 45 -603 0 c-332 0 -610 2 -618 6 -9 3 -70 -54 -174 -164 l-161
-170 3 -406 3 -407 86 -86 86 -86 0 371 c0 205 4 372 8 372 4 0 80 77 167 170
l160 170 240 -1 c302 0 453 -10 466 -30 19 -31 10 -56 -22 -63 -17 -3 -174 -6
-348 -6 l-317 0 -55 -57 c-30 -32 -90 -97 -132 -144 l-77 -86 0 -378 0 -378
68 -69 c38 -37 73 -68 79 -68 11 0 23 199 23 389 l0 116 159 158 c125 124 160
164 165 191 19 98 144 149 227 93 135 -91 87 -287 -72 -287 -36 0 -56 7 -95
35 l-49 35 -60 -62 c-33 -35 -88 -94 -122 -131 l-63 -69 0 -263 0 -263 86 -73
c47 -41 118 -98 157 -128 141 -106 411 -346 455 -405 30 -41 30 -89 -1 -103
-22 -10 -24 -19 -30 -110 -4 -54 -7 -243 -7 -420 l0 -322 -82 -3 -83 -3 -3
-235 c-1 -129 0 -245 3 -257 8 -33 61 -90 112 -120 83 -48 188 -23 258 61 l35
43 0 245 c0 176 -3 247 -12 256 -7 7 -39 12 -74 12 l-62 0 -6 298 c-4 163 -11
468 -15 677 -10 463 -3 1566 10 1617 8 30 18 42 49 58 67 34 126 41 330 38
306 -4 352 -3 405 12 174 47 275 161 291 329 4 42 -1 80 -20 154 -39 146 -37
167 24 226 57 55 60 73 31 150 l-19 50 29 27 c16 15 33 42 39 60 10 30 7 42
-23 111 -44 99 -60 151 -55 188 3 27 12 33 112 77 121 53 170 92 188 149 9 33
7 44 -19 101 -17 34 -72 131 -123 213 -122 196 -198 327 -226 390 l-24 51 22
123 c20 109 21 132 10 214 -15 119 -111 407 -194 580 -34 70 -59 128 -57 130
164 110 257 220 315 373 55 146 67 283 35 398 -26 92 -32 96 -76 48 -56 -63
-113 -86 -215 -86 -73 -1 -110 6 -255 48 -93 26 -246 76 -340 111 -257 96
-517 172 -666 195 -75 12 -640 27 -649 17z m116 -192 c6 -15 -22 -111 -39
-132 -13 -18 -34 -16 -41 2 -8 22 43 145 60 145 8 0 17 -7 20 -15z m628 -18
c8 -13 5 -28 -13 -62 -39 -74 -64 -50 -36 35 17 51 30 58 49 27z m-1254 -42
l0 -45 -135 0 -135 0 0 29 c0 61 0 61 141 61 l129 0 0 -45z m200 5 c0 -31 -4
-40 -17 -40 -10 0 -35 -3 -55 -6 l-38 -7 0 47 0 46 55 0 55 0 0 -40z m267 4
c-3 -20 -7 -38 -9 -39 -2 -1 -38 -5 -80 -9 l-78 -7 0 46 0 45 86 0 87 0 -6
-36z m623 -5 c0 -24 -5 -39 -15 -43 -8 -3 -91 -3 -183 -1 l-167 5 -3 38 -3 38
186 -1 185 0 0 -36z m481 -149 c10 -6 26 -24 34 -40 14 -27 13 -30 -11 -59
-14 -17 -32 -31 -40 -31 -17 0 -17 0 2 39 14 29 14 34 0 56 -27 41 -21 54 15
35z m-586 -59 c3 -17 2 -39 -4 -49 -10 -20 -45 -35 -55 -24 -11 10 -6 98 6
110 17 17 45 -3 53 -37z m-1492 -6 c2 -22 2 -43 0 -47 -2 -5 -204 -8 -448 -8
-395 0 -444 2 -449 16 -7 18 -8 69 -2 75 2 2 205 4 449 4 l445 0 5 -40z m1331
29 c3 -9 6 -31 6 -50 l0 -34 -295 0 -295 0 0 29 c0 60 -4 58 183 54 95 -2 213
0 262 5 131 14 132 13 139 -4z m-700 -37 c-4 -23 -7 -43 -8 -43 -3 -4 -296 -8
-403 -6 l-123 2 0 29 c0 64 -13 61 276 61 l264 -1 -6 -42z m1328 7 c2 -21 0
-38 -7 -40 -6 -3 -96 -3 -200 -2 l-190 3 -3 32 c-4 40 -4 40 224 42 l172 1 4
-36z m-1915 -175 c8 -8 81 -12 237 -12 l226 0 0 -43 0 -44 -240 0 c-132 0
-243 -1 -247 -2 -5 -2 -9 17 -11 41 -5 65 8 87 35 60z m-873 -15 c3 -9 6 -33
6 -55 0 -42 -13 -49 -51 -29 -26 14 -27 86 -1 93 32 9 40 7 46 -9z m1486 1
c17 -9 30 -18 30 -21 0 -12 -30 -62 -45 -74 -15 -12 -19 -12 -31 5 -17 22 -18
59 -4 86 13 23 13 23 50 4z m-932 -4 c7 -1 12 -15 12 -34 l0 -34 -152 -6 c-83
-4 -189 -7 -235 -7 l-83 0 0 38 c0 21 2 41 4 43 4 3 405 3 454 0z m178 -15 c8
-34 2 -57 -18 -70 -23 -14 -29 -5 -35 49 -5 43 -5 45 21 45 19 0 27 -6 32 -24z
m892 12 c7 -7 12 -25 12 -41 0 -25 -3 -28 -27 -25 -20 2 -29 9 -31 26 -7 46
18 68 46 40z m1379 -4 c7 -7 10 -19 7 -27 -4 -12 -28 -16 -102 -19 -53 -2
-100 1 -103 5 -12 17 3 46 25 50 44 9 161 3 173 -9z m-914 -21 c-7 -2 -21 -2
-30 0 -10 3 -4 5 12 5 17 0 24 -2 18 -5z m936 -149 c50 -42 67 -146 34 -207
-10 -18 -23 -50 -28 -72 l-11 -40 -23 46 -23 47 22 30 c32 43 30 108 -4 166
-35 61 -20 75 33 30z m-912 -54 c2 -50 -1 -64 -18 -81 -29 -29 -39 -11 -39 74
0 67 0 67 28 67 26 0 27 -2 29 -60z m-147 -12 l0 -43 -127 2 -128 1 0 34 0 33
70 6 c39 3 96 6 128 7 l57 2 0 -42z m938 17 c25 -54 21 -56 -95 -53 l-108 3
-3 32 -3 32 88 4 c48 1 93 4 99 5 6 1 16 -9 22 -23z m-2688 -26 l0 -42 -52 7
c-29 3 -92 6 -140 6 l-88 0 0 35 0 35 140 0 140 0 0 -41z m755 1 l0 -35 -288
-2 c-158 -1 -292 -5 -297 -8 -6 -3 -14 -3 -20 0 -11 7 -14 68 -3 78 4 4 142 6
307 5 l301 -3 0 -35z m643 -2 l3 -38 -265 0 c-170 0 -267 4 -271 10 -4 6 -4
24 0 40 l7 30 261 -2 262 -3 3 -37z m1023 35 c0 -5 3 -20 5 -35 4 -22 1 -28
-13 -29 -26 -2 -418 3 -419 4 -1 1 -4 17 -7 35 l-6 32 219 0 c121 0 220 -3
221 -7z m-1966 -209 c12 -12 15 -32 13 -78 -3 -53 -5 -61 -23 -61 -18 0 -21 9
-26 70 -8 89 0 105 36 69z m-671 -11 c9 -32 11 -98 4 -100 -5 -2 -19 -3 -33
-3 -24 0 -25 3 -25 60 0 57 1 60 24 60 15 0 27 -7 30 -17z m2452 0 c-4 -9 -14
-40 -23 -67 -20 -62 -17 -59 -42 -51 -25 8 -27 34 -5 78 24 47 34 57 56 57 15
0 18 -5 14 -17z m-675 -30 c5 -14 6 -30 2 -34 -4 -4 -61 -5 -126 -2 -69 4
-113 9 -105 14 10 7 10 9 -2 9 -19 0 32 27 62 33 13 2 53 5 91 6 64 1 68 0 78
-26z m-539 -6 c4 -7 8 -25 8 -41 l0 -29 -167 9 c-93 5 -193 8 -225 8 l-56 -2
-4 34 c-2 19 -3 36 -2 37 1 1 100 1 221 -1 153 -3 220 -7 225 -15z m1038 -11
c0 -19 -3 -37 -7 -39 -5 -3 -102 -2 -218 2 -192 5 -210 8 -213 24 -9 46 -5 47
223 47 l215 0 0 -34z m635 -1 l0 -30 -163 -9 c-181 -10 -212 -4 -212 38 0 13
6 27 13 29 6 3 91 5 187 4 l175 -2 0 -30z m-2385 -8 c0 -15 -6 -30 -12 -32 -7
-2 -100 -6 -206 -7 l-192 -3 0 37 0 36 205 -1 205 -2 0 -28z m2916 -181 c43
-42 44 -45 44 -109 0 -63 -1 -67 -36 -95 -71 -58 -145 -50 -212 24 -46 50 -50
66 -27 122 31 72 70 100 144 101 39 1 49 -4 87 -43z m-2616 -5 c15 -29 12 -97
-5 -111 -8 -7 -22 -10 -30 -6 -28 11 -15 136 15 136 5 0 14 -9 20 -19z m-150
-40 c0 -27 -5 -41 -16 -45 -26 -10 -567 -7 -577 3 -5 5 -7 21 -5 37 3 29 3 29
88 35 47 3 181 6 298 7 l212 2 0 -39z m-676 13 c3 -9 6 -31 6 -50 0 -27 -4
-34 -19 -34 -41 0 -51 11 -51 56 0 42 1 44 29 44 17 0 31 -6 35 -16z m3164
-60 c12 -4 22 -11 22 -16 0 -5 -4 -6 -10 -3 -5 3 -10 -1 -10 -9 0 -9 -4 -16
-10 -16 -5 0 -10 -6 -10 -14 0 -20 -30 -22 -325 -14 -253 7 -379 8 -450 5 -28
-2 -30 1 -33 36 l-3 37 403 0 c222 0 413 -3 426 -6z m-46 -339 c10 -52 4 -53
-279 -57 l-263 -4 0 43 0 43 269 0 269 0 4 -25z m168 -16 l0 -41 -67 7 c-79 9
-83 10 -83 34 0 25 36 40 98 40 l52 1 0 -41z m-2745 -1063 c37 -16 52 -48 41
-92 -9 -35 -84 -68 -134 -59 -46 9 -92 55 -92 93 0 36 14 49 66 61 57 13 81
13 119 -3z m217 -28 c45 -49 47 -70 12 -104 -19 -20 -31 -24 -52 -19 -42 10
-53 32 -46 90 3 27 7 56 9 63 8 23 38 12 77 -30z m2308 -158 c18 -13 41 -42
51 -66 39 -86 -5 -176 -99 -204 -35 -11 -48 -11 -87 4 -26 10 -57 33 -73 52
l-27 34 -190 0 c-259 -1 -711 -17 -853 -30 -64 -6 -200 -14 -302 -18 -184 -7
-185 -7 -188 -30 -6 -37 16 -78 68 -126 46 -43 48 -44 136 -51 49 -4 122 -10
162 -14 64 -6 74 -5 90 12 24 27 86 57 117 57 43 0 90 -25 123 -66 l32 -39
123 -5 c67 -3 314 -3 549 -1 l428 4 19 33 c58 97 183 97 255 0 30 -40 29 -130
-2 -173 -60 -84 -213 -75 -253 15 l-13 29 -550 -4 c-550 -5 -551 -5 -566 -26
-48 -69 -110 -96 -177 -78 -60 16 -100 54 -116 109 l-14 47 -145 5 c-91 3
-150 9 -159 17 -16 13 -21 11 -90 -34 -19 -13 -38 -21 -44 -20 -22 7 -15 49
15 91 36 50 35 68 -10 119 -21 24 -29 46 -33 87 -3 30 -7 66 -9 80 -3 23 1 26
57 37 33 7 125 17 205 23 80 6 201 17 270 25 92 11 248 15 596 15 l472 0 12
29 c35 85 144 115 220 61z m-1961 -336 c13 -52 9 -63 -14 -44 -25 21 -33 43
-24 68 13 34 26 26 38 -24z m201 -599 c0 -16 -6 -25 -16 -25 -25 0 -84 -65
-84 -91 0 -37 42 -104 67 -107 29 -4 41 38 24 85 -7 19 -11 36 -9 38 2 3 21
-9 41 -26 46 -38 47 -60 2 -121 -30 -41 -40 -48 -68 -48 -32 0 -35 3 -66 75
-41 92 -40 153 3 210 23 30 33 35 67 35 35 0 39 -3 39 -25z m-475 6 c3 -5 0
-21 -6 -35 -9 -20 -8 -40 5 -93 9 -37 16 -76 16 -86 0 -23 -53 -77 -74 -77
-23 0 -20 39 4 65 l21 22 -26 48 c-14 26 -25 59 -25 73 0 52 65 115 85 83z
m235 -8 c0 -9 12 -40 26 -70 20 -40 25 -62 21 -90 -11 -63 -88 -123 -160 -123
-22 0 -31 22 -23 55 5 21 12 25 44 25 21 0 48 7 60 16 38 26 23 105 -24 126
-23 11 -28 10 -40 -7 -22 -29 -38 -6 -29 44 l7 41 59 0 c48 0 59 -3 59 -17z
m1928 -3535 l3 -78 -106 0 -105 0 0 80 0 81 103 -3 102 -3 3 -77z"/>
<path d="M6026 7309 c-35 -27 -37 -90 -4 -113 34 -24 85 -21 102 7 30 47 29
65 -3 97 -35 35 -59 38 -95 9z"/>
<path d="M5685 5602 c-58 -12 -75 -84 -29 -121 36 -28 68 -26 93 5 25 32 26
46 6 83 -15 30 -36 40 -70 33z"/>
<path d="M4549 5187 c-43 -33 -50 -87 -14 -122 34 -35 86 -34 115 2 52 66 -36
170 -101 120z"/>
<path d="M5952 5193 c-7 -3 -19 -18 -28 -34 -13 -27 -13 -33 2 -64 38 -81 150
-36 128 51 -11 41 -60 64 -102 47z"/>
<path d="M8485 8644 c9 -9 19 -13 23 -10 3 4 0 11 -8 16 -24 15 -33 11 -15 -6z"/>
<path d="M1230 8606 c0 -46 0 -46 35 -46 34 0 35 1 35 40 0 33 -3 40 -19 40
-11 0 -26 3 -35 6 -13 5 -16 -2 -16 -40z"/>
<path d="M1420 8605 c0 -44 0 -45 34 -45 30 0 34 4 40 31 11 56 9 59 -34 59
l-40 0 0 -45z"/>
<path d="M1610 8628 c0 -13 -3 -33 -6 -45 -6 -21 -3 -23 40 -23 l46 0 0 45 0
45 -40 0 c-35 0 -40 -3 -40 -22z"/>
<path d="M1800 8605 l0 -45 40 0 40 0 0 45 0 45 -40 0 -40 0 0 -45z"/>
<path d="M1990 8605 l0 -45 40 0 40 0 0 45 0 45 -40 0 -40 0 0 -45z"/>
<path d="M2170 8605 l0 -45 39 0 c35 0 39 3 45 31 11 56 9 59 -39 59 l-45 0 0
-45z"/>
<path d="M2438 8633 c7 -3 16 -2 19 1 4 3 -2 6 -13 5 -11 0 -14 -3 -6 -6z"/>
<path d="M8536 8587 c3 -10 9 -15 12 -12 3 3 0 11 -7 18 -10 9 -11 8 -5 -6z"/>
<path d="M7695 8529 c-4 -6 -5 -12 -2 -15 2 -3 7 2 10 11 7 17 1 20 -8 4z"/>
<path d="M1242 8431 c-8 -5 -12 -22 -10 -42 3 -32 6 -34 38 -34 31 0 35 3 38
30 5 41 -33 68 -66 46z"/>
<path d="M1408 8395 c4 -45 4 -45 42 -45 38 0 38 0 42 45 l3 45 -45 0 -45 0 3
-45z"/>
<path d="M1600 8396 l0 -46 43 0 42 0 0 43 0 42 -42 3 -43 3 0 -45z"/>
<path d="M1790 8395 l0 -45 45 0 c43 0 45 1 45 29 0 16 3 36 6 45 5 13 -2 16
-45 16 l-51 0 0 -45z"/>
<path d="M1989 8436 c-3 -3 -3 -23 -1 -45 4 -40 5 -41 43 -41 l39 0 0 45 0 45
-38 0 c-21 0 -41 -2 -43 -4z"/>
<path d="M1120 8396 c0 -32 2 -35 31 -34 27 1 30 4 27 32 -2 25 -8 32 -30 34
-26 3 -28 1 -28 -32z m40 4 c0 -5 -4 -10 -10 -10 -5 0 -10 5 -10 10 0 6 5 10
10 10 6 0 10 -4 10 -10z"/>
<path d="M2162 8390 l2 -41 45 3 c40 3 45 6 52 32 11 41 5 46 -52 46 l-50 0 3
-40z"/>
<path d="M7509 8393 c-13 -17 -13 -17 6 -3 11 8 22 16 24 17 2 2 0 3 -6 3 -6
0 -17 -8 -24 -17z"/>
<path d="M7558 8403 c7 -3 16 -2 19 1 4 3 -2 6 -13 5 -11 0 -14 -3 -6 -6z"/>
<path d="M8740 8365 c0 -8 29 -12 39 -5 9 5 4 8 -13 8 -14 0 -26 -2 -26 -3z"/>
<path d="M1190 8053 l0 -153 -65 0 c-74 0 -71 6 -59 -109 6 -51 10 -61 26 -61
26 0 20 -34 -7 -38 -19 -3 -20 -11 -22 -120 0 -64 3 -125 8 -134 6 -11 27 -20
59 -24 l49 -6 3 -82 3 -81 38 -3 37 -3 0 85 c0 82 1 86 23 86 12 0 39 5 60 11
l37 10 0 128 c0 127 0 128 -25 139 -30 14 -33 32 -5 32 20 0 21 5 18 83 l-3
82 -47 3 -46 3 -7 105 c-5 69 -4 109 3 116 6 6 98 12 231 16 l221 5 0 -122 0
-121 -60 0 -60 0 0 -85 c0 -78 2 -85 20 -85 11 0 20 -6 20 -14 0 -8 -9 -18
-20 -21 -19 -6 -20 -15 -20 -134 l0 -128 31 -7 c17 -3 44 -6 60 -6 l29 0 0
-89 0 -89 33 -5 c17 -2 35 -3 40 0 4 2 7 44 7 94 l0 89 50 0 50 0 0 128 c0
116 -2 131 -20 147 -26 23 -25 33 3 37 21 3 22 8 22 83 l0 80 -52 3 -53 3 0
124 0 124 49 7 c44 6 72 26 57 42 -3 2 -165 5 -360 6 l-356 1 0 -152z"/>
<path d="M8805 7810 c-3 -6 1 -7 9 -4 18 7 21 14 7 14 -6 0 -13 -4 -16 -10z"/>
<path d="M7055 7628 c-31 -17 -74 -60 -97 -96 -19 -31 -20 -52 -25 -453 -5
-417 -4 -420 17 -465 23 -47 73 -87 123 -99 15 -4 27 -11 27 -16 0 -18 60 -9
114 17 73 34 136 102 136 146 1 18 0 212 0 432 -1 318 -4 404 -15 425 -19 36
-85 98 -118 110 -37 14 -136 14 -162 -1z m182 -112 l33 -36 0 -399 c0 -382 -1
-401 -20 -434 -24 -41 -57 -57 -113 -57 -56 0 -88 18 -109 60 -16 30 -18 66
-18 258 0 206 1 222 18 222 32 0 60 -29 77 -80 20 -59 52 -75 86 -44 27 24 22
90 -11 158 -29 61 -56 74 -109 54 -22 -9 -42 -13 -45 -10 -3 3 -6 66 -6 140
l0 134 40 40 c39 39 42 40 92 36 44 -5 57 -11 85 -42z"/>
<path d="M6730 7584 c-51 -37 -53 -40 -39 -65 28 -54 80 -64 123 -24 26 24 34
67 18 91 -16 25 -66 23 -102 -2z"/>
<path d="M8149 7602 c-9 -4 -29 -22 -44 -40 -25 -30 -27 -35 -14 -58 7 -14 23
-37 36 -50 28 -31 61 -21 87 28 l19 35 -26 35 c-15 19 -27 40 -27 46 0 13 -7
14 -31 4z"/>
<path d="M8860 7586 c0 -14 -8 -31 -18 -38 -30 -21 -34 -36 -19 -65 8 -16 20
-40 26 -55 18 -47 53 -38 85 22 15 28 31 50 37 50 17 0 9 29 -12 40 -11 7 -25
25 -31 41 -8 23 -16 29 -39 29 -24 0 -29 -4 -29 -24z"/>
<path d="M7529 7569 c-35 -38 -36 -53 -5 -84 26 -26 46 -25 79 3 21 19 22 36
0 73 -25 41 -41 43 -74 8z"/>
<path d="M7822 7559 c-32 -37 -33 -42 -21 -70 26 -65 60 -70 104 -17 31 37 31
49 0 78 -14 13 -25 29 -25 37 0 24 -25 13 -58 -28z"/>
<path d="M8463 7570 c-27 -34 -29 -62 -6 -101 25 -43 41 -43 79 -3 32 33 44
64 27 64 -5 0 -19 16 -32 35 -28 42 -39 43 -68 5z"/>
<path d="M9087 7514 c-13 -13 -7 -71 8 -84 13 -11 20 -9 41 11 36 33 30 73
-11 77 -17 2 -34 0 -38 -4z"/>
<path d="M7578 7364 c-16 -8 -28 -19 -28 -24 0 -5 -13 -25 -30 -43 -33 -38
-39 -79 -14 -99 9 -7 31 -28 50 -45 43 -40 85 -44 117 -10 12 13 32 29 44 36
13 6 27 19 32 29 21 40 -71 172 -119 172 -14 -1 -37 -8 -52 -16z m82 -114 c0
-21 -20 -40 -42 -40 -21 0 -25 39 -7 71 10 20 11 20 30 3 10 -9 19 -25 19 -34z"/>
<path d="M8720 7337 c-30 -15 -48 -60 -32 -79 8 -10 25 -12 59 -9 46 6 48 7
45 36 -4 28 -27 65 -41 65 -3 0 -17 -6 -31 -13z"/>
<path d="M1478 7329 c-37 -21 -11 -89 39 -104 28 -8 55 28 46 64 -3 14 -8 29
-12 32 -13 13 -57 18 -73 8z"/>
<path d="M9102 7267 c-26 -28 -28 -63 -4 -75 21 -11 104 8 109 24 5 16 -37 61
-63 68 -14 4 -27 -1 -42 -17z"/>
<path d="M8185 7256 c-64 -16 -108 -39 -133 -71 -11 -14 -24 -25 -30 -25 -18
0 -22 -29 -4 -33 16 -4 15 -5 0 -6 -10 0 -18 -5 -18 -11 0 -5 -3 -9 -7 -9 -19
3 -27 -2 -15 -10 8 -5 15 -19 15 -33 2 -20 6 -23 30 -20 22 4 26 1 21 -12 -5
-12 0 -19 15 -23 12 -3 21 -13 21 -24 0 -15 7 -19 40 -19 33 0 40 3 40 20 0
12 7 20 16 20 9 0 18 9 21 20 3 11 14 20 24 20 12 0 19 7 19 20 0 11 5 20 10
20 6 0 10 9 10 20 0 11 5 20 10 20 6 0 10 18 10 39 0 34 4 40 29 49 16 6 32 7
36 4 3 -4 3 1 0 10 -5 12 -1 14 21 10 19 -3 25 -1 20 7 -4 6 -33 12 -64 12
-51 1 -53 2 -22 9 33 7 32 7 -15 8 -27 0 -72 -5 -100 -12z m145 -26 c0 -5 -10
-10 -22 -10 -19 0 -20 2 -8 10 19 13 30 13 30 0z m-101 -14 c-2 -2 -17 -6 -34
-10 -22 -5 -26 -4 -15 4 14 9 59 15 49 6z"/>
<path d="M6740 7241 c-13 -25 2 -66 30 -81 46 -25 96 50 58 88 -20 20 -76 15
-88 -7z"/>
<path d="M947 7229 c-28 -16 -49 -67 -42 -100 8 -35 48 -69 82 -69 37 0 83 51
83 93 0 48 -33 87 -73 87 -18 0 -40 -5 -50 -11z"/>
<path d="M3799 7055 c-94 -102 -175 -185 -178 -185 -3 -1 -17 -9 -29 -20 l-24
-20 1 -336 2 -335 168 -167 c92 -92 181 -184 197 -204 l29 -38 321 -1 322 -2
198 204 c110 112 203 207 208 211 6 4 9 138 9 334 l-2 328 -43 32 c-49 36
-325 315 -352 357 l-18 27 -319 0 -318 0 -172 -185z m281 58 c12 -16 28 -43
35 -60 l14 -33 123 -2 c200 -4 209 -2 239 32 38 45 48 39 46 -28 -2 -58 -1
-60 57 -128 32 -38 75 -93 94 -121 19 -29 38 -53 43 -53 4 0 40 16 80 35 39
19 76 32 81 29 4 -3 8 -16 8 -30 0 -25 -24 -55 -67 -84 -21 -14 -23 -26 -29
-136 -9 -166 -2 -206 41 -236 19 -12 39 -35 44 -50 10 -27 9 -28 -22 -28 -18
0 -49 9 -70 20 -20 11 -45 20 -54 20 -10 -1 -62 -44 -117 -96 l-99 -95 16 -52
c38 -125 16 -192 -37 -109 -38 61 -41 62 -205 69 -172 7 -174 6 -227 -84 -18
-32 -31 -43 -49 -43 -21 0 -25 5 -25 31 0 17 14 61 30 99 17 38 30 75 30 83 0
9 -15 26 -32 39 -18 12 -63 51 -100 85 -75 70 -72 69 -173 32 -27 -11 -56 -19
-63 -19 -19 0 15 55 57 92 l34 30 -2 167 -2 166 -49 45 c-47 44 -73 90 -50 90
6 0 42 -16 80 -35 82 -41 95 -43 111 -12 7 12 37 51 69 87 114 131 112 127
104 224 -7 94 -1 105 36 59z"/>
<path d="M4143 6855 c-69 -35 -200 -174 -209 -222 -4 -19 -4 -79 -2 -132 6
-124 34 -190 113 -266 82 -78 130 -98 240 -99 79 -1 98 3 149 27 79 36 134 83
182 153 l39 57 0 126 c-1 151 -6 165 -109 266 -95 94 -126 108 -251 112 -91 3
-105 1 -152 -22z m252 -367 c35 -16 34 -55 -2 -69 -59 -23 -193 -5 -193 26 0
40 135 70 195 43z"/>
<path d="M8470 7221 c0 -9 30 -24 36 -18 2 1 -6 8 -16 15 -11 7 -20 8 -20 3z"/>
<path d="M8798 7183 c-3 -27 -3 -51 -1 -55 2 -5 20 -8 38 -8 38 0 55 20 55 64
0 28 -25 46 -63 46 -22 0 -25 -5 -29 -47z"/>
<path d="M1877 7192 c-20 -21 -27 -38 -27 -68 0 -58 22 -84 71 -84 84 0 120
90 60 151 -37 37 -70 37 -104 1z"/>
<path d="M1330 7073 c-60 -12 -187 -81 -232 -127 -54 -56 -112 -168 -134 -262
-25 -111 1 -234 76 -344 97 -143 298 -233 448 -201 225 50 382 238 382 460 0
198 -95 359 -258 438 -69 33 -86 37 -167 39 -49 1 -101 0 -115 -3z m28 -150
c-11 -15 -10 -16 10 -11 12 4 22 2 22 -3 0 -5 -7 -9 -15 -9 -8 0 -15 -5 -15
-11 0 -6 7 -9 15 -5 8 3 15 1 15 -5 0 -6 5 -7 10 -4 12 7 12 3 4 -19 -3 -9
-10 -16 -15 -16 -4 0 -6 7 -3 15 4 9 0 15 -9 15 -8 0 -14 -8 -13 -17 1 -15 -7
-18 -42 -18 -23 0 -42 -3 -42 -7 0 -5 -5 -8 -11 -8 -5 0 -7 5 -3 12 4 7 3 8
-5 4 -8 -5 -2 -19 20 -44 40 -46 118 -112 132 -112 8 0 8 3 0 11 -12 12 -6 49
9 49 5 0 6 -4 3 -10 -3 -5 -2 -10 3 -10 17 0 21 12 8 25 -16 16 -9 75 9 75 7
0 18 -7 25 -15 7 -9 32 -30 54 -47 23 -18 33 -23 23 -11 -18 21 -18 22 0 32
10 6 13 11 6 11 -6 0 -15 -4 -18 -10 -8 -13 -25 -13 -25 -1 0 12 56 24 71 16
8 -5 8 -10 0 -18 -15 -15 -14 -24 2 -24 14 0 16 31 4 43 -4 4 -7 16 -7 27 0
14 5 18 20 14 11 -3 23 -1 26 4 3 5 0 8 -6 7 -7 -2 -14 5 -15 15 -3 17 -2 17
14 3 10 -9 22 -16 27 -16 5 0 19 -15 32 -33 23 -34 29 -52 13 -43 -5 3 -12 -1
-15 -10 -3 -8 -9 -13 -14 -10 -15 9 -33 -10 -26 -28 4 -11 13 -15 28 -10 16 5
18 3 10 -5 -6 -7 -21 -13 -33 -14 -11 -1 -21 -5 -21 -9 0 -5 12 -6 28 -2 15 3
22 2 16 -3 -9 -6 -8 -12 2 -21 13 -11 14 -10 10 12 -3 14 0 26 5 26 5 0 9 -8
9 -17 0 -14 2 -15 9 -4 7 11 10 9 16 -8 8 -25 -28 -76 -83 -118 -20 -15 -65
-54 -99 -85 -34 -32 -69 -58 -77 -58 -26 0 -39 28 -31 67 l7 37 -20 -24 c-17
-21 -23 -23 -34 -12 -11 11 -10 13 2 10 8 -2 14 3 12 10 -1 8 2 11 8 7 5 -3
10 1 10 10 0 12 5 15 16 11 11 -4 22 1 31 14 8 11 18 18 23 15 4 -3 25 11 46
30 l39 36 -54 49 c-55 50 -71 59 -71 40 0 -5 4 -10 8 -10 8 0 32 -43 32 -57 0
-3 -9 -3 -19 0 -17 4 -18 2 -11 -18 11 -29 -25 -79 -83 -115 -38 -24 -53 -37
-109 -88 -15 -14 -37 -26 -50 -28 -92 -15 -85 -17 -107 29 -28 57 -27 62 14
64 19 1 35 -3 35 -8 0 -6 5 -7 10 -4 6 3 10 1 10 -6 0 -7 15 1 33 17 17 17 52
43 76 58 l44 28 -24 20 c-13 11 -19 17 -13 14 7 -3 18 1 25 10 12 14 14 14 26
-2 10 -14 13 -15 13 -3 0 15 -52 60 -73 63 -7 1 -18 5 -24 9 -7 5 -13 4 -13 0
0 -5 6 -15 13 -22 10 -11 9 -12 -1 -7 -7 4 -21 2 -30 -6 -15 -12 -16 -11 -3 5
12 15 12 17 -3 11 -9 -3 -16 -10 -16 -15 0 -5 -6 -9 -14 -9 -8 0 -27 -5 -43
-11 -15 -7 -43 -12 -60 -13 -32 -2 -33 -1 -33 42 0 26 10 62 26 94 28 55 87
122 97 111 4 -3 7 2 7 11 0 13 5 16 17 12 10 -4 14 -4 10 0 -9 9 51 46 63 39
5 -3 11 -1 15 5 3 5 19 10 35 10 16 0 32 5 36 12 6 9 9 9 12 0 2 -7 -2 -20
-10 -29z m62 -97 c0 -3 -4 -8 -10 -11 -5 -3 -10 -1 -10 4 0 6 5 11 10 11 6 0
10 -2 10 -4z m284 -91 c-4 -8 -11 -12 -16 -9 -6 4 -5 10 3 15 19 12 19 11 13
-6z m-169 -135 c-3 -5 -12 -10 -18 -10 -7 0 -6 4 3 10 19 12 23 12 15 0z m-85
-55 c-7 -9 -15 -13 -18 -10 -3 2 1 11 8 20 7 9 15 13 18 10 3 -2 -1 -11 -8
-20z m-40 -89 c0 -2 -7 -7 -16 -10 -8 -3 -12 -2 -9 4 6 10 25 14 25 6z m2 -43
c-6 -3 -9 -10 -6 -15 4 -6 2 -8 -4 -5 -5 4 -9 15 -7 25 2 9 4 19 4 22 1 2 7
-2 14 -9 10 -11 9 -14 -1 -18z m-138 -121 c3 -5 -1 -9 -9 -9 -8 0 -12 4 -9 9
3 4 7 8 9 8 2 0 6 -4 9 -8z m54 -28 c18 -8 32 -17 32 -19 0 -7 -60 17 -66 26
-7 12 -2 11 34 -7z"/>
<path d="M1244 6872 c4 -3 14 -7 22 -8 9 -1 13 0 10 4 -4 3 -14 7 -22 8 -9 1
-13 0 -10 -4z"/>
<path d="M1605 6710 c-3 -6 1 -7 9 -4 18 7 21 14 7 14 -6 0 -13 -4 -16 -10z"/>
<path d="M1696 6643 c-6 -14 -5 -15 5 -6 7 7 10 15 7 18 -3 3 -9 -2 -12 -12z"/>
<path d="M9047 7023 c-4 -3 -7 -19 -7 -35 l0 -28 95 0 c87 0 95 2 95 19 0 47
-8 51 -94 51 -46 0 -86 -3 -89 -7z"/>
<path d="M7760 6971 c-19 -11 -45 -30 -58 -44 -20 -21 -21 -25 -8 -30 25 -10
18 -25 -14 -32 -18 -4 -30 -13 -30 -22 0 -13 3 -13 15 -3 17 14 21 0 4 -17 -8
-8 -7 -13 2 -18 8 -5 10 -4 5 3 -10 16 36 16 52 0 16 -16 112 30 112 53 0 9 7
19 15 23 9 3 15 18 15 37 0 18 7 41 17 51 15 17 14 18 -38 18 -33 -1 -68 -8
-89 -19z m41 -49 c19 -27 28 -29 40 -10 6 9 9 9 9 1 0 -13 -17 -26 -37 -29 -7
-1 -13 2 -13 7 0 6 -4 8 -9 4 -5 -3 -12 4 -16 15 -8 25 -21 26 -35 0 -6 -12
-7 -20 -1 -20 5 0 12 5 14 10 3 6 4 5 3 -2 -4 -21 -31 -15 -28 6 2 12 -1 16
-9 10 -8 -4 -10 -3 -5 5 4 6 12 9 17 6 5 -4 12 0 15 8 8 21 37 15 55 -11z"/>
<path d="M8662 6954 c9 -8 117 -10 112 -2 -3 5 -30 8 -61 8 -31 0 -54 -3 -51
-6z"/>
<path d="M8795 6930 c3 -5 14 -10 23 -10 15 0 15 2 2 10 -20 13 -33 13 -25 0z"/>
<path d="M7665 6880 c-3 -5 -1 -10 4 -10 6 0 11 5 11 10 0 6 -2 10 -4 10 -3 0
-8 -4 -11 -10z"/>
<path d="M9090 6784 c0 -33 2 -36 23 -30 12 3 46 6 75 6 51 0 52 0 52 30 l0
30 -75 0 -75 0 0 -36z"/>
<path d="M9133 6608 c-17 -8 -23 -20 -23 -44 0 -63 88 -78 120 -22 13 25 13
29 -9 52 -26 28 -52 31 -88 14z"/>
<path d="M6096 6539 c-34 -27 -35 -71 -1 -104 29 -30 68 -32 95 -5 44 44 4
128 -61 130 -4 0 -18 -9 -33 -21z"/>
<path d="M2344 6375 c-18 -14 -17 -15 11 -9 17 3 25 2 19 -3 -8 -6 -6 -18 7
-43 16 -28 19 -31 19 -13 0 16 9 25 33 31 17 6 41 13 52 17 16 6 17 5 5 -4
-13 -9 -13 -11 3 -11 9 0 17 5 17 11 0 6 14 0 31 -12 30 -21 31 -21 18 -1 -9
15 -34 26 -81 37 -84 19 -109 19 -134 0z"/>
<path d="M2624 6306 c10 -8 22 -13 27 -11 4 3 10 1 14 -5 9 -14 25 -12 25 3 0
8 -6 14 -12 14 -7 0 -26 4 -43 7 -28 7 -29 6 -11 -8z"/>
<path d="M8222 6313 l-1002 -3 2 -1213 3 -1212 1030 0 1030 0 0 1215 0 1215
-30 0 c-16 0 -481 -1 -1033 -2z m860 -120 c24 -22 23 -62 -4 -90 -28 -30 -42
-29 -67 3 -51 65 11 142 71 87z m-1562 -48 l0 -45 -75 0 -75 0 0 45 0 45 75 0
75 0 0 -45z m268 -1 l3 -41 -78 -6 c-55 -4 -80 -2 -85 6 -10 15 -10 71 -1 81
4 4 41 5 83 4 l75 -3 3 -41z m1400 -1146 l2 -978 -927 -2 c-511 -2 -930 -2
-933 0 -3 2 -6 442 -8 978 l-3 974 403 3 c222 1 642 2 933 2 l530 0 3 -977z"/>
<path d="M7603 5756 c-42 -9 -43 -10 -43 -48 0 -33 3 -39 16 -34 9 3 206 6
439 6 l423 0 -3 43 -3 42 -394 0 c-216 1 -412 -3 -435 -9z"/>
<path d="M7770 5538 l0 -48 280 0 280 0 0 48 0 47 -280 0 -280 0 0 -47z"/>
<path d="M8252 5354 l3 -46 103 -2 102 -1 0 48 0 47 -106 0 -105 0 3 -46z"/>
<path d="M8530 5355 l0 -45 95 0 95 0 0 45 0 45 -95 0 -95 0 0 -45z"/>
<path d="M7930 5345 l0 -45 94 0 c51 0 108 3 125 6 28 6 31 10 31 45 l0 39
-125 0 -125 0 0 -45z"/>
<path d="M8458 5203 l-108 -4 0 -34 0 -35 130 0 130 0 0 40 c0 35 -3 40 -22
38 -13 -1 -71 -4 -130 -5z"/>
<path d="M8777 5200 c-75 -6 -102 -19 -94 -45 6 -16 77 -26 172 -23 l90 3 3
38 3 37 -48 -2 c-26 0 -83 -4 -126 -8z"/>
<path d="M7908 5166 l-4 -33 104 -7 c57 -3 142 -3 188 1 l84 6 0 33 0 34 -184
0 -184 0 -4 -34z"/>
<path d="M7614 5008 c-3 -5 4 -8 15 -8 14 0 21 -6 21 -20 0 -11 -6 -20 -12
-20 -10 0 -10 -2 0 -9 10 -6 8 -10 -10 -15 -13 -4 -18 -10 -11 -12 7 -3 21 -1
32 5 13 8 198 11 565 11 l544 0 7 31 c4 17 5 32 3 35 -8 7 -1150 9 -1154 2z"/>
<path d="M7716 4804 c-3 -9 -6 -28 -6 -44 l0 -28 273 5 c149 2 278 6 285 8 6
3 12 20 12 40 l0 35 -279 0 c-245 0 -280 -2 -285 -16z"/>
<path d="M8390 4766 c0 -8 71 -12 76 -4 3 4 -13 8 -35 8 -23 0 -41 -2 -41 -4z"/>
<path d="M7927 4643 c-3 -4 -7 -26 -8 -48 -4 -36 -2 -40 19 -39 12 0 139 1
282 2 l260 2 0 40 0 40 -252 0 c-139 0 -263 3 -274 6 -12 3 -24 2 -27 -3z"/>
<path d="M8253 4463 l-333 -3 0 -43 0 -43 335 -2 335 -2 0 50 c0 28 -1 49 -2
48 -2 -2 -153 -4 -335 -5z"/>
<path d="M8650 4425 l0 -45 84 0 84 0 4 41 c2 22 2 42 -1 45 -2 2 -42 4 -88 4
l-83 0 0 -45z"/>
<path d="M7988 4263 l-268 -3 0 -43 0 -43 393 3 c215 2 456 6 535 9 l142 6 0
39 0 39 -267 -2 c-148 -2 -388 -4 -535 -5z"/>
<path d="M7546 4226 c-11 -53 -7 -89 8 -83 8 3 31 9 51 13 31 6 36 10 31 28
-3 11 -6 33 -6 47 0 24 -3 26 -39 25 -35 -1 -40 -4 -45 -30z"/>
<path d="M878 6143 c-37 -40 -41 -63 -18 -101 28 -45 60 -58 108 -44 100 30
78 172 -26 172 -29 0 -45 -7 -64 -27z"/>
<path d="M2448 6153 c7 -3 16 -2 19 1 4 3 -2 6 -13 5 -11 0 -14 -3 -6 -6z"/>
<path d="M1775 6108 c-52 -28 -61 -84 -18 -118 33 -26 68 -20 101 17 27 30 23
68 -10 96 -23 19 -44 21 -73 5z"/>
<path d="M2590 6098 c0 -14 -6 -30 -12 -36 -7 -5 -75 -13 -150 -17 -138 -7
-138 -7 -138 -32 l0 -24 132 2 c131 1 132 1 155 -25 12 -14 28 -26 35 -26 9 0
9 3 -2 11 -12 8 -9 9 11 5 33 -7 42 2 23 21 -8 9 -13 22 -10 30 3 8 1 11 -4 8
-6 -3 -10 -1 -10 4 0 6 4 11 8 11 5 0 9 6 9 14 0 8 -8 13 -17 11 -11 -2 -17 5
-18 28 -3 38 -12 50 -12 15z"/>
<path d="M6080 6048 c-25 -42 -25 -42 8 -80 71 -78 166 3 101 86 -31 40 -83
37 -109 -6z"/>
<path d="M1255 5978 c-209 -66 -314 -174 -365 -374 -25 -95 -25 -139 -1 -230
27 -106 58 -161 131 -235 75 -76 160 -121 264 -142 135 -26 287 25 398 136 70
69 106 134 138 248 24 87 25 141 5 227 -40 171 -168 311 -332 366 -91 30 -153
32 -238 4z m259 -157 c117 -57 182 -157 193 -298 12 -160 -57 -297 -180 -358
-223 -109 -465 2 -524 239 -28 116 2 240 83 334 101 119 284 154 428 83z"/>
<path d="M1292 5739 c-51 -10 -106 -53 -143 -110 -32 -50 -34 -59 -34 -140 0
-79 2 -89 30 -129 37 -53 120 -110 173 -117 69 -9 147 21 207 81 57 57 75 99
75 177 0 38 -7 55 -37 95 -53 71 -84 104 -116 121 -38 19 -114 31 -155 22z
m188 -267 c0 -7 -4 -12 -8 -12 -5 0 -27 -16 -49 -35 -23 -19 -47 -35 -55 -35
-7 0 -24 16 -37 35 -13 19 -27 35 -31 35 -12 0 -60 48 -60 60 0 6 20 32 45 59
l45 48 75 -72 c41 -39 75 -77 75 -83z"/>
<path d="M2591 5913 c10 -11 10 -14 2 -9 -8 4 -13 1 -13 -8 0 -14 -12 -15 -86
-9 l-86 6 11 -22 c11 -19 17 -21 57 -15 24 3 44 2 44 -3 0 -4 20 -8 44 -9 42
0 49 7 33 32 -4 7 0 17 8 24 17 14 11 30 -12 30 -13 0 -14 -2 -2 -17z"/>
<path d="M2378 5883 c7 -3 16 -2 19 1 4 3 -2 6 -13 5 -11 0 -14 -3 -6 -6z"/>
<path d="M2083 5516 c-38 -17 -73 -69 -73 -109 0 -40 24 -92 51 -111 14 -9 43
-16 72 -16 42 0 54 5 83 34 30 30 34 40 34 85 0 44 -5 56 -32 86 -39 42 -87
53 -135 31z"/>
<path d="M2657 5513 c-59 -20 -131 -82 -159 -137 -33 -64 -36 -168 -8 -234 28
-66 99 -131 169 -156 104 -37 243 -1 310 81 89 108 79 284 -21 380 -72 70
-199 98 -291 66z m178 -118 c133 -77 117 -263 -26 -310 -60 -20 -100 -15 -156
21 -69 45 -92 110 -68 191 23 79 82 120 174 122 20 1 52 -9 76 -24z"/>
<path d="M2678 5264 c-21 -45 -2 -59 78 -59 65 0 69 1 78 27 15 43 -5 58 -80
58 -60 0 -65 -2 -76 -26z"/>
<path d="M6964 5435 c-29 -29 -26 -58 8 -87 27 -24 44 -23 73 7 32 31 32 58
-1 84 -35 27 -49 26 -80 -4z"/>
<path d="M2100 5102 c0 -4 -2 -43 -5 -87 -5 -106 -1 -120 36 -123 16 -1 29 2
29 8 0 5 6 10 13 10 23 0 64 54 70 91 4 28 1 38 -14 47 -35 22 -129 61 -129
54z"/>
<path d="M6965 5060 c-15 -17 -16 -24 -5 -50 17 -41 57 -51 82 -20 22 27 23
54 2 74 -21 22 -57 20 -79 -4z"/>
<path d="M892 4967 c-28 -30 -28 -62 0 -81 31 -22 60 -20 92 5 32 25 33 49 3
77 -30 28 -68 28 -95 -1z"/>
<path d="M2285 4849 c-117 -103 -189 -159 -247 -192 -27 -16 -48 -31 -48 -35
0 -4 -18 -26 -40 -50 -22 -24 -37 -48 -34 -54 4 -6 3 -8 -3 -5 -6 4 -24 0 -39
-8 -25 -13 -26 -15 -8 -20 10 -4 46 -20 79 -36 33 -17 83 -36 110 -43 l50 -13
126 61 125 61 28 85 c15 47 34 102 42 123 12 34 11 44 -12 117 -13 43 -28 81
-32 84 -4 2 -48 -31 -97 -75z"/>
<path d="M1208 4848 c-65 -14 -162 -64 -200 -104 -42 -44 -71 -104 -88 -185
-11 -48 -10 -64 5 -114 42 -147 98 -207 248 -270 l67 -28 87 39 c48 21 103 52
121 68 41 36 76 104 98 190 14 55 14 74 5 113 -18 70 -54 144 -91 186 -63 73
-179 121 -252 105z m97 -147 c49 -22 99 -77 115 -126 7 -21 10 -63 8 -94 -12
-173 -208 -247 -326 -123 -103 110 -71 281 63 343 50 23 89 23 140 0z"/>
<path d="M1208 4570 c-71 -38 -72 -92 -1 -125 61 -29 123 2 123 62 0 31 -28
73 -49 73 -5 0 -15 2 -23 5 -7 2 -30 -5 -50 -15z"/>
<path d="M6942 4824 c-31 -21 -29 -67 3 -88 37 -24 61 -19 90 18 21 28 24 39
16 54 -19 35 -71 43 -109 16z"/>
<path d="M2824 4806 c-11 -29 61 -141 152 -236 50 -52 117 -131 149 -175 78
-107 452 -479 1134 -1130 58 -55 196 -190 306 -299 l200 -200 0 -1019 c0
-1019 0 -1020 21 -1033 17 -12 23 -12 40 0 19 14 19 39 21 1053 l3 1038 -352
340 c-1183 1143 -1284 1244 -1366 1360 -55 79 -207 263 -245 298 -23 21 -56
22 -63 3z"/>
<path d="M6044 4782 c-16 -10 -34 -48 -34 -70 0 -11 9 -31 21 -46 16 -20 29
-26 60 -26 37 0 41 3 55 36 25 60 -8 114 -68 114 -13 0 -28 -4 -34 -8z"/>
<path d="M2566 4654 c-21 -55 -2 -78 299 -364 61 -57 331 -320 600 -585 270
-264 578 -566 685 -670 107 -104 205 -204 218 -221 l23 -30 -12 -230 c-6 -126
-12 -401 -13 -611 l-1 -383 -70 0 c-38 0 -75 -4 -82 -8 -9 -5 -9 -53 -3 -192
5 -102 6 -209 3 -237 -5 -50 -4 -55 31 -98 105 -127 263 -135 349 -15 l27 38
0 241 c0 276 6 261 -98 261 l-59 0 -7 178 c-6 159 8 1009 17 1018 2 2 25 -19
52 -46 l50 -50 -4 -430 -3 -430 24 0 c59 0 57 -15 59 452 1 385 -1 429 -16
452 -10 14 -22 26 -27 26 -5 0 -111 100 -236 223 -125 122 -315 305 -422 406
-107 102 -382 369 -610 595 -228 225 -462 454 -520 507 -58 53 -121 118 -140
144 -48 64 -101 92 -114 59z m1960 -3398 c1 0 3 -32 5 -71 l4 -70 -90 -3
c-136 -4 -135 -5 -135 77 0 37 3 70 6 73 4 5 205 -1 210 -6z"/>
<path d="M6948 4584 c-34 -18 -36 -47 -6 -68 63 -45 145 17 90 67 -23 21 -48
21 -84 1z"/>
<path d="M2396 4335 c-60 -56 -65 -138 -10 -196 21 -22 24 -34 24 -107 0 -66
-3 -82 -15 -82 -8 0 -29 -13 -47 -29 -28 -25 -33 -36 -33 -76 0 -42 4 -51 36
-79 l36 -31 0 -474 0 -475 36 -33 c20 -18 41 -33 46 -33 17 0 22 39 10 77 -8
27 -12 174 -14 498 -2 452 -1 460 19 488 23 31 26 99 7 136 -6 11 -11 58 -11
104 l0 85 36 27 c70 54 79 126 22 191 -25 29 -37 34 -73 34 -31 0 -49 -6 -69
-25z"/>
<path d="M6878 4313 c-28 -14 -33 -28 -22 -58 8 -20 56 -45 87 -45 26 0 67 38
67 62 0 40 -84 67 -132 41z"/>
<path d="M1651 4302 c-36 -20 -71 -72 -71 -108 0 -38 21 -82 47 -99 l25 -17
-3 -606 c-3 -525 -2 -610 11 -628 21 -30 223 -245 365 -390 66 -67 160 -164
210 -214 49 -50 102 -99 117 -108 15 -9 28 -24 28 -33 0 -67 47 -109 123 -109
57 0 87 29 87 87 0 34 -6 46 -34 71 -18 16 -66 42 -105 57 -77 29 -132 70
-206 152 -25 29 -81 81 -124 117 -42 35 -116 111 -164 168 -48 56 -112 125
-143 152 -101 88 -94 45 -94 577 0 256 3 521 7 588 6 116 7 123 29 131 52 20
72 105 40 169 -26 50 -94 71 -145 43z"/>
<path d="M2048 4242 c-31 -19 -58 -67 -58 -105 0 -33 39 -88 75 -107 17 -8 34
-19 38 -25 4 -5 7 -226 5 -489 l-3 -480 34 -13 c22 -10 37 -11 44 -4 6 6 8
188 5 510 -2 276 -1 501 4 501 4 0 14 13 23 30 58 113 -64 247 -167 182z"/>
<path d="M6777 4103 c-20 -20 8 -89 45 -112 26 -16 44 -1 52 44 10 51 -7 75
-53 75 -21 0 -41 -3 -44 -7z"/>
<path d="M2700 3895 c-1 -214 1 -227 53 -262 23 -15 60 -42 82 -60 110 -90
168 -132 176 -127 5 3 8 1 7 -3 -2 -5 11 -21 27 -35 l30 -26 -27 -7 c-28 -7
-75 -51 -66 -61 4 -3 16 0 28 6 12 6 24 9 27 6 9 -9 -6 -36 -19 -35 -10 0 -10
2 0 6 6 2 12 9 12 15 0 6 -6 6 -15 -2 -23 -19 -10 -27 49 -29 l54 -1 3 44 c2
24 1 42 -3 40 -3 -2 -4 5 -1 17 4 14 -1 25 -16 35 -16 12 -21 26 -21 60 0 24
-4 44 -10 44 -5 0 -10 -5 -10 -11 0 -6 -6 -9 -12 -6 -8 2 -12 16 -10 32 3 24
1 27 -17 22 -17 -4 -21 -1 -21 19 0 17 -6 24 -20 24 -13 0 -20 7 -20 20 0 11
-7 20 -15 20 -9 0 -25 9 -37 20 -13 12 -17 20 -9 20 11 0 11 3 1 14 -6 8 -18
12 -26 9 -7 -3 -17 2 -20 11 -3 9 -15 16 -25 16 -11 0 -22 7 -25 15 -4 8 -17
15 -30 15 -16 0 -22 4 -18 14 3 8 -3 19 -14 25 -17 9 -20 22 -21 102 -1 51 -4
96 -7 100 -5 9 39 -3 78 -21 15 -7 25 -17 21 -23 -3 -6 -1 -7 6 -3 9 6 5 14
-11 30 -28 27 -93 76 -101 76 -3 0 -6 -74 -7 -165z m287 -321 c-3 -3 -12 -4
-19 -1 -8 3 -5 6 6 6 11 1 17 -2 13 -5z m83 -140 c0 -2 -9 -4 -20 -4 -11 0
-20 4 -20 9 0 5 9 7 20 4 11 -3 20 -7 20 -9z m-50 -88 c0 -2 -8 -10 -17 -17
-16 -13 -17 -12 -4 4 13 16 21 21 21 13z"/>
<path d="M5231 4047 c-6 -8 -14 -28 -17 -46 -5 -25 -2 -37 16 -56 27 -29 80
-34 104 -9 22 22 21 87 -2 107 -22 20 -85 22 -101 4z"/>
<path d="M1363 4010 c-43 -26 -66 -72 -57 -113 11 -54 34 -88 67 -102 l32 -13
3 -414 c2 -227 6 -421 8 -430 5 -18 41 -34 52 -23 4 4 7 202 8 440 1 428 1
433 22 460 45 57 19 165 -47 200 -39 19 -49 19 -88 -5z"/>
<path d="M6085 3946 c-7 -84 -2 -126 16 -126 5 0 10 17 10 38 1 20 4 51 8 67
l7 30 13 -25 c24 -44 82 -110 97 -110 11 0 14 21 14 105 0 97 -1 105 -20 105
-16 0 -19 -8 -22 -57 l-3 -57 -43 57 c-23 31 -49 57 -56 57 -10 0 -16 -23 -21
-84z"/>
<path d="M6328 3920 l3 -109 47 6 c57 7 98 27 112 52 11 22 13 80 4 106 -10
25 -79 55 -126 55 l-43 0 3 -110z m124 48 c11 -16 1 -79 -15 -95 -7 -6 -24
-15 -39 -18 l-28 -7 0 72 0 73 37 -6 c20 -4 40 -12 45 -19z"/>
<path d="M914 3986 c-30 -30 -34 -40 -34 -84 0 -39 6 -57 25 -81 14 -16 35
-33 45 -36 19 -6 20 -16 20 -156 0 -120 -3 -155 -16 -174 -14 -22 -14 -27 1
-57 9 -18 19 -52 22 -76 5 -37 2 -45 -20 -66 -22 -21 -26 -31 -21 -58 4 -18
11 -37 15 -43 5 -5 9 -87 9 -181 l0 -173 273 -274 c568 -572 733 -748 760
-809 21 -48 31 -58 59 -66 74 -20 138 28 138 103 0 57 -7 73 -41 90 -37 20
-62 19 -88 -3 -22 -17 -24 -15 -195 158 -96 96 -206 215 -245 264 -39 48 -89
103 -111 121 -75 62 -381 360 -424 412 l-43 52 -6 142 c-4 113 -2 149 9 171
19 36 18 72 -2 89 -13 11 -15 25 -10 74 4 33 6 148 5 257 l-1 196 27 18 c35
23 55 64 55 113 0 31 -7 47 -34 75 -30 32 -39 36 -86 36 -46 0 -56 -4 -86 -34z"/>
<path d="M5923 4009 c-31 -39 -76 -169 -59 -169 3 0 16 11 30 25 38 38 64 33
86 -17 30 -67 37 -21 10 63 -27 84 -50 118 -67 98z m21 -74 c4 -10 -1 -15 -14
-15 -11 0 -20 7 -20 15 0 8 6 15 14 15 8 0 16 -7 20 -15z"/>
<path d="M6889 3978 c-27 -16 -39 -18 -64 -11 -63 20 -132 -8 -109 -44 5 -9
30 -21 54 -28 25 -7 50 -13 55 -15 20 -7 175 34 175 45 0 19 -38 62 -59 68
-11 2 -34 -4 -52 -15z"/>
<path d="M1872 3924 c-12 -8 -29 -29 -38 -46 -13 -25 -13 -35 -3 -59 6 -17 20
-34 30 -40 18 -9 19 -30 19 -400 l0 -390 39 -37 c22 -20 62 -65 90 -98 27 -34
96 -102 152 -150 56 -49 134 -119 173 -155 39 -36 123 -109 186 -161 63 -53
126 -108 140 -122 29 -32 118 -60 159 -51 65 14 63 59 -3 75 -66 17 -104 37
-154 83 -26 24 -69 59 -97 77 -27 18 -95 76 -150 130 -55 53 -138 128 -185
167 -83 68 -195 182 -249 252 l-26 34 3 371 c3 349 5 372 23 392 31 33 25 87
-12 118 -35 30 -65 33 -97 10z"/>
<path d="M2845 3930 c-3 -6 1 -7 9 -4 18 7 21 14 7 14 -6 0 -13 -4 -16 -10z"/>
<path d="M3038 3771 c12 -10 19 -21 16 -24 -3 -3 1 -4 10 -3 8 1 19 6 23 11 4
4 3 5 -3 2 -6 -4 -19 2 -29 13 -10 11 -23 20 -28 20 -6 0 0 -8 11 -19z"/>
<path d="M3147 3699 c12 -12 25 -20 28 -17 3 3 -7 13 -22 23 l-28 17 22 -23z"/>
<path d="M7416 3619 c-8 -77 -8 -157 0 -186 5 -19 13 -23 45 -23 35 0 39 3 39
24 0 21 -5 24 -27 23 l-28 -2 0 102 c0 121 -18 161 -29 62z"/>
<path d="M1171 3315 l6 -354 68 -76 c38 -42 100 -104 138 -138 133 -118 374
-352 446 -435 106 -121 392 -405 491 -488 47 -40 96 -83 109 -98 46 -50 55
-36 35 60 -5 28 -105 129 -186 187 -81 59 -193 168 -288 282 -108 130 -370
394 -480 485 -53 43 -131 118 -175 166 l-80 88 -3 338 -4 338 -41 0 -42 0 6
-355z"/>
<path d="M7287 3641 c-13 -16 -27 -45 -31 -64 -12 -63 25 -177 57 -177 26 0
65 54 71 101 9 59 -10 135 -37 154 -29 20 -31 19 -60 -14z m58 -100 c0 -50 -4
-66 -19 -77 -29 -21 -36 -9 -36 61 0 50 4 66 18 74 30 18 37 6 37 -58z"/>
<path d="M8095 3661 c-3 -6 -3 -37 0 -69 l7 -57 -42 63 c-24 34 -46 62 -50 62
-3 0 -11 -36 -16 -79 -9 -80 -2 -147 18 -166 7 -7 9 11 4 65 l-7 75 36 -55
c19 -30 37 -63 41 -72 6 -21 20 -23 30 -6 4 7 7 62 6 122 -2 104 -11 142 -27
117z"/>
<path d="M5925 3648 c-26 -73 -65 -202 -65 -218 0 -27 23 -26 35 3 7 15 20 23
42 25 28 3 33 -1 39 -22 4 -16 13 -26 24 -26 15 0 16 5 9 43 -29 143 -69 236
-84 195z m19 -114 c10 -25 7 -34 -9 -34 -9 0 -15 9 -15 25 0 28 15 34 24 9z"/>
<path d="M6066 3639 c-41 -33 -35 -70 19 -116 25 -20 45 -43 45 -50 0 -15 -56
-18 -65 -3 -10 16 -25 11 -25 -8 0 -28 29 -62 53 -62 30 0 66 26 78 57 12 32
-5 60 -60 100 -56 39 -54 57 3 49 54 -8 66 5 30 33 -33 26 -45 26 -78 0z"/>
<path d="M6214 3652 c-15 -10 -3 -234 14 -240 8 -2 12 8 12 35 0 37 2 39 53
58 49 19 52 22 55 58 3 30 -2 43 -27 67 -29 30 -80 40 -107 22z m82 -73 c16
-17 16 -22 4 -29 -24 -16 -49 -11 -60 10 -22 41 22 56 56 19z"/>
<path d="M6380 3591 c0 -104 11 -192 24 -188 7 2 11 43 11 113 1 127 -1 144
-21 144 -11 0 -14 -16 -14 -69z"/>
<path d="M6445 3649 c-7 -11 2 -200 11 -231 10 -34 24 -18 24 27 0 25 4 45 9
45 15 0 43 -32 53 -62 10 -28 31 -37 43 -17 4 6 -1 16 -11 23 -21 16 -26 107
-6 113 13 5 16 41 6 68 -14 35 -113 61 -129 34z m93 -82 c3 -28 2 -29 -30 -22
-44 10 -48 13 -48 36 0 17 6 20 38 17 32 -3 37 -6 40 -31z"/>
<path d="M6622 3552 c3 -62 1 -115 -4 -120 -12 -12 14 -33 31 -23 18 12 2 242
-18 249 -12 4 -13 -14 -9 -106z"/>
<path d="M6687 3646 c-3 -8 -3 -64 0 -125 7 -125 25 -147 33 -40 l5 64 30 -68
c24 -53 34 -67 50 -65 17 3 21 14 28 73 5 38 6 93 2 122 -5 45 -10 53 -27 53
-18 0 -19 -4 -13 -37 4 -21 9 -51 12 -68 l6 -30 -26 37 c-71 102 -88 116 -100
84z"/>
<path d="M6894 3639 c-28 -32 -28 -180 1 -208 47 -45 85 -32 104 36 13 45 0
73 -34 73 -27 0 -35 -26 -14 -47 8 -8 5 -13 -11 -18 -29 -9 -35 -1 -35 50 0
58 23 84 60 67 29 -14 32 -4 10 38 -19 36 -53 40 -81 9z"/>
<path d="M7134 3652 c-16 -10 -34 -48 -34 -71 0 -11 20 -39 45 -62 25 -23 45
-47 45 -52 0 -6 -18 -7 -46 -3 l-46 6 19 -33 c25 -40 66 -41 101 -1 37 42 26
69 -55 135 -15 12 -17 49 -3 49 6 0 19 -5 30 -12 26 -16 36 -4 22 27 -12 25
-53 34 -78 17z"/>
<path d="M7528 3563 c1 -54 5 -108 7 -121 6 -24 45 -45 69 -36 27 10 46 70 46
143 0 39 2 71 4 71 3 0 16 -4 31 -10 23 -9 25 -14 19 -45 -8 -43 4 -167 16
-160 4 3 11 47 15 97 6 79 11 96 31 115 l23 21 3 -110 c2 -76 7 -113 15 -115
20 -7 26 42 17 145 l-9 97 -73 0 c-50 -1 -76 -5 -81 -14 -7 -11 -11 -10 -19 4
-6 12 -15 16 -28 11 -12 -5 -15 -9 -7 -14 7 -5 11 -38 10 -92 -2 -84 -2 -85
-27 -85 -23 0 -25 4 -27 55 -4 90 -14 140 -26 140 -9 0 -11 -27 -9 -97z"/>
<path d="M7869 3644 c-9 -11 -14 -42 -14 -93 0 -93 9 -127 36 -142 18 -9 26
-7 47 15 22 22 27 36 30 93 2 51 -1 77 -15 103 -21 40 -61 52 -84 24z m61 -49
c14 -17 7 -112 -9 -128 -22 -22 -41 2 -41 53 0 76 22 109 50 75z"/>
<path d="M8167 3642 c-37 -41 -16 -98 52 -143 15 -9 21 -20 17 -27 -9 -16 -49
-15 -64 0 -9 9 -12 6 -12 -13 0 -33 17 -49 52 -49 21 0 33 8 48 33 29 46 25
59 -25 105 -43 39 -58 72 -33 72 6 0 22 -10 35 -22 31 -29 40 -16 20 27 -13
28 -22 35 -45 35 -16 0 -36 -8 -45 -18z"/>
<path d="M8404 3633 c-4 -16 -15 -61 -25 -102 -11 -41 -19 -88 -19 -105 l1
-31 27 33 c34 41 60 42 69 2 6 -35 33 -41 33 -8 0 12 -12 65 -26 117 -15 53
-28 102 -30 109 -6 22 -23 13 -30 -15z m36 -113 c0 -11 -6 -20 -14 -20 -9 0
-12 7 -9 20 3 11 9 20 14 20 5 0 9 -9 9 -20z"/>
<path d="M8503 3644 c-6 -16 5 -235 13 -243 7 -8 16 7 23 41 9 43 31 42 46 -1
6 -19 17 -37 25 -39 10 -4 11 4 4 39 -5 24 -7 73 -6 108 3 82 -14 111 -64 111
-22 0 -37 -6 -41 -16z m70 -46 c5 -16 -10 -48 -23 -48 -6 0 -10 14 -10 30 0
30 24 43 33 18z"/>
<path d="M8658 3628 c-29 -31 -30 -34 -23 -101 8 -90 20 -114 57 -119 23 -4
33 1 49 24 25 35 39 36 39 3 0 -15 6 -25 14 -25 11 0 16 14 18 48 3 40 6 47
26 50 20 3 22 0 22 -47 0 -39 4 -51 15 -51 13 0 15 18 13 123 -2 72 -7 121
-13 119 -5 -1 -8 -20 -6 -42 l3 -40 -46 0 -46 0 0 -49 0 -48 -42 -6 c-54 -8
-70 10 -66 73 l3 45 50 5 50 5 -32 33 c-17 17 -37 32 -43 32 -7 0 -26 -14 -42
-32z"/>
<path d="M8785 3626 c-8 -39 -3 -52 14 -41 13 8 14 45 2 64 -7 11 -11 5 -16
-23z"/>
<path d="M9014 3652 l-111 -3 9 -47 c5 -26 8 -78 7 -117 -1 -38 1 -69 4 -67 4
1 12 2 17 2 6 0 10 40 10 100 0 92 1 100 19 100 25 0 36 -63 28 -151 -3 -33
-1 -59 4 -59 5 0 9 27 9 60 0 32 5 83 12 112 l12 53 10 -61 c6 -33 16 -60 21
-58 6 1 22 5 38 8 37 9 36 36 -2 36 -35 0 -58 22 -39 38 7 6 29 12 48 14 27 2
35 8 35 22 0 23 7 22 -131 18z"/>
<path d="M9187 3643 c-27 -31 -38 -95 -26 -152 11 -52 41 -101 63 -101 14 0
46 51 46 74 0 13 -4 14 -26 4 -23 -11 -29 -10 -45 11 -27 32 -26 97 1 111 12
6 30 8 41 5 11 -4 26 -2 33 4 8 6 21 9 29 5 13 -5 17 -25 19 -102 3 -82 6 -97
20 -100 15 -3 18 9 20 100 l3 103 28 3 c29 4 32 9 18 31 -6 9 -30 14 -71 15
-53 1 -64 -2 -68 -17 -4 -17 -6 -16 -19 3 -17 25 -45 26 -66 3z"/>
<path d="M3234 3629 c-4 -7 -3 -9 4 -5 5 3 12 0 15 -6 2 -7 7 -10 11 -7 4 3 0
12 -8 18 -11 9 -16 9 -22 0z"/>
<path d="M9056 3434 c-8 -22 -6 -24 40 -27 34 -2 39 1 42 21 3 20 -1 22 -36
22 -28 0 -42 -5 -46 -16z"/>
<path d="M3105 3428 c11 -6 23 -16 26 -21 4 -5 12 -6 19 -2 9 6 6 12 -11 21
-13 7 -31 13 -39 13 -10 0 -9 -3 5 -11z"/>
<path d="M3654 3245 c-3 -14 -4 -32 0 -40 8 -22 60 -19 81 5 17 19 17 21 0 40
-27 29 -73 27 -81 -5z"/>
<path d="M5786 3193 c-3 -21 -6 -98 -6 -172 0 -117 2 -132 16 -127 9 3 24 6
35 6 31 0 49 57 49 150 l0 80 53 0 c28 0 76 3 106 7 45 5 56 10 72 37 34 56
34 56 -150 56 l-168 0 -7 -37z"/>
<path d="M6944 3210 c2 -8 7 -27 10 -42 6 -25 10 -27 78 -32 40 -4 93 -7 118
-9 l45 -2 6 -105 c4 -58 7 -108 8 -112 0 -5 21 -8 45 -8 52 0 56 8 56 115 0
115 -5 110 122 127 100 14 112 18 134 44 13 16 23 32 24 35 0 3 -146 6 -325 5
-283 -1 -324 -3 -321 -16z"/>
<path d="M8511 3198 c12 -43 28 -54 95 -62 30 -3 73 -15 93 -26 37 -19 39 -21
50 -95 6 -42 15 -85 21 -95 9 -17 57 -33 72 -23 9 5 10 278 2 311 -6 22 -9 22
-174 22 l-169 0 10 -32z"/>
<path d="M7973 3203 l-73 -4 0 -95 c0 -89 -1 -96 -21 -101 -12 -3 -42 -16 -67
-29 l-45 -23 -63 57 c-35 31 -68 57 -73 57 -4 0 -49 -43 -99 -96 l-91 -96 61
-73 61 -72 -16 -33 c-14 -30 -21 -34 -71 -40 -31 -4 -69 -5 -86 -3 l-30 5 0
-87 c0 -48 -3 -115 -6 -148 l-7 -61 94 -3 94 -3 14 -42 15 -42 -61 -69 -62
-69 101 -100 100 -101 62 64 61 65 49 -26 c27 -14 58 -25 68 -25 16 0 18 -10
20 -72 2 -102 3 -108 11 -108 4 0 69 0 146 0 l139 0 7 85 c5 58 11 85 19 85 7
0 33 11 58 24 l45 24 67 -60 67 -60 58 63 c94 104 121 136 121 146 0 5 -24 37
-53 72 -52 63 -53 64 -43 107 l11 44 91 0 91 0 7 61 c3 34 6 101 6 148 l0 86
-94 -3 -95 -4 -15 31 c-9 16 -16 34 -16 38 0 4 27 40 60 78 33 39 60 73 60 76
0 3 -41 49 -91 102 l-91 97 -68 -61 -69 -61 -38 26 c-21 14 -47 26 -59 26 -25
0 -34 36 -34 138 0 61 0 62 -27 62 -16 0 -50 2 -78 4 -27 2 -83 1 -122 -1z
m165 -435 c88 -22 185 -141 198 -242 15 -105 -58 -236 -159 -287 -135 -69
-313 -4 -386 142 -69 138 -23 291 108 363 81 43 139 49 239 24z"/>
<path d="M3289 3183 c-13 -16 -12 -17 4 -4 16 13 21 21 13 21 -2 0 -10 -8 -17
-17z"/>
<path d="M6370 3128 c1 -68 2 -71 15 -48 7 14 10 26 6 28 -11 4 -1 61 12 69 5
3 7 2 4 -3 -3 -6 12 -9 36 -8 23 1 65 3 92 4 48 2 48 2 17 10 -19 4 -63 8 -99
9 -35 0 -69 3 -74 6 -5 4 -9 -25 -9 -67z"/>
<path d="M6635 3190 c3 -5 8 -10 11 -10 2 0 4 5 4 10 0 6 -5 10 -11 10 -5 0
-7 -4 -4 -10z"/>
<path d="M6642 3140 c0 -19 2 -27 5 -17 2 9 2 25 0 35 -3 9 -5 1 -5 -18z"/>
<path d="M8986 3138 c-34 -29 -52 -126 -41 -223 l7 -67 64 4 c35 2 66 7 69 10
15 15 34 120 37 203 l3 90 -56 3 c-47 2 -61 -1 -83 -20z m81 -264 c-3 -3 -12
-4 -19 -1 -8 3 -5 6 6 6 11 1 17 -2 13 -5z"/>
<path d="M6443 3143 c9 -2 23 -2 30 0 6 3 -1 5 -18 5 -16 0 -22 -2 -12 -5z"/>
<path d="M2707 3117 c-4 -11 -6 -87 -5 -170 1 -136 2 -145 10 -89 l10 62 39 0
c35 0 39 2 39 26 0 21 4 24 20 19 18 -6 20 -2 20 47 0 54 -25 109 -36 81 -8
-20 -32 -15 -44 7 -13 25 -30 26 -31 3 -1 -12 -4 -9 -8 7 -6 22 -8 23 -14 7z"/>
<path d="M3125 3070 c-3 -6 1 -7 9 -4 18 7 21 14 7 14 -6 0 -13 -4 -16 -10z"/>
<path d="M6085 3050 c3 -5 8 -10 11 -10 2 0 4 5 4 10 0 6 -5 10 -11 10 -5 0
-7 -4 -4 -10z"/>
<path d="M6860 3010 c-30 -27 -49 -50 -42 -50 6 0 21 9 31 19 14 14 22 16 31
8 10 -9 11 -9 7 -1 -9 17 39 27 63 14 11 -6 19 -14 19 -18 -3 -18 2 -30 14
-35 25 -10 14 22 -20 55 -26 25 -36 29 -45 20 -14 -14 -28 -16 -28 -3 0 5 9
11 20 14 11 3 20 10 20 16 0 19 -14 12 -70 -39z"/>
<path d="M3545 3024 c-109 -17 -206 -62 -310 -144 -33 -25 -77 -57 -97 -69
-32 -19 -38 -28 -38 -56 0 -44 -44 -212 -76 -287 l-25 -61 19 -46 c30 -70 72
-231 72 -277 0 -40 3 -43 91 -110 49 -38 115 -88 144 -111 30 -23 76 -49 102
-58 27 -9 82 -30 123 -47 108 -44 135 -45 206 -10 32 16 82 37 110 46 28 9 73
31 101 49 88 57 234 181 237 202 3 11 9 56 15 100 11 75 33 161 61 230 11 27
8 43 -28 148 -23 64 -44 146 -48 181 l-7 65 -66 51 c-36 28 -97 75 -136 105
-92 72 -163 95 -310 100 -60 2 -123 1 -140 -1z m220 -135 c80 -18 170 -66 233
-124 94 -87 138 -186 149 -335 10 -151 -39 -294 -134 -388 -202 -200 -515
-201 -711 -3 -101 103 -149 238 -140 393 15 248 152 407 403 463 62 14 113 12
200 -6z"/>
<path d="M3544 2806 c-113 -28 -216 -115 -267 -224 -29 -61 -31 -76 -32 -167
0 -116 16 -172 75 -264 113 -174 341 -222 551 -116 116 59 194 206 193 365 -1
107 -14 152 -65 230 -97 145 -288 219 -455 176z m141 -263 c121 -58 228 -113
238 -121 9 -8 17 -25 17 -38 0 -18 -17 -31 -97 -72 -54 -27 -125 -66 -158 -86
-33 -20 -67 -36 -75 -36 -8 0 -44 -14 -79 -30 -36 -17 -70 -29 -78 -26 -19 8
-16 60 5 78 9 8 88 50 175 91 86 42 157 81 157 85 0 5 -79 46 -175 92 -97 46
-180 89 -186 96 -16 19 -1 74 19 74 9 0 116 -48 237 -107z"/>
<path d="M6005 2950 c-71 -81 -81 -100 -56 -108 10 -3 12 0 8 11 -4 10 3 23
17 34 12 10 21 24 18 31 -3 11 10 17 31 13 5 -1 6 3 3 8 -4 5 -2 12 3 15 8 5
53 76 48 76 -1 0 -33 -36 -72 -80z"/>
<path d="M6130 3022 c0 -7 7 -15 15 -18 8 -4 12 -11 8 -18 -3 -6 -3 -8 1 -5 4
4 22 -9 42 -27 36 -36 49 -41 59 -24 4 6 11 7 17 4 6 -4 9 -3 6 2 -3 5 0 15 8
22 12 11 14 9 14 -8 0 -11 4 -20 9 -20 5 0 8 8 7 18 -1 11 5 16 16 14 10 -1
22 7 28 20 9 19 9 21 -2 8 -7 -8 -24 -14 -37 -12 -13 2 -36 -6 -52 -17 -15
-12 -32 -21 -36 -21 -4 0 -29 21 -55 47 -26 26 -48 42 -48 35z"/>
<path d="M6663 2993 c4 -3 1 -13 -6 -21 -7 -10 -8 -13 -1 -9 7 4 29 0 49 -9
57 -23 66 -1 11 25 -46 21 -65 26 -53 14z"/>
<path d="M6909 2983 c-13 -16 -12 -17 4 -4 16 13 21 21 13 21 -2 0 -10 -8 -17
-17z"/>
<path d="M6360 2940 c0 -5 5 -10 11 -10 5 0 7 5 4 10 -3 6 -8 10 -11 10 -2 0
-4 -4 -4 -10z"/>
<path d="M6766 2925 c-21 -16 -14 -34 12 -30 11 1 16 9 14 21 -5 25 -4 24 -26
9z m18 -13 c3 -5 -1 -9 -9 -9 -8 0 -12 4 -9 9 3 4 7 8 9 8 2 0 6 -4 9 -8z"/>
<path d="M7024 2921 c11 -11 23 -21 28 -21 14 0 -1 19 -25 31 -22 12 -22 12
-3 -10z"/>
<path d="M6308 2913 c6 -2 12 -11 12 -19 0 -10 12 -14 40 -14 22 0 40 4 40 10
0 5 -7 7 -16 3 -9 -3 -19 -1 -23 5 -4 7 -20 13 -36 16 -17 2 -24 1 -17 -1z"/>
<path d="M6280 2896 c0 -2 7 -6 15 -10 8 -3 15 -1 15 4 0 6 -7 10 -15 10 -8 0
-15 -2 -15 -4z"/>
<path d="M7048 2893 c-10 -3 -15 -10 -11 -19 5 -13 7 -13 14 -2 7 10 9 10 9 0
0 -7 -17 -28 -37 -47 -27 -25 -40 -31 -46 -22 -6 8 -7 8 -4 -3 2 -8 10 -14 16
-12 12 2 15 -11 4 -21 -3 -4 -13 -1 -21 6 -11 8 -14 8 -9 0 4 -6 1 -14 -5 -16
-7 -3 -4 -6 8 -6 29 -1 137 122 121 138 -6 6 -13 10 -16 10 -4 -1 -14 -3 -23
-6z"/>
<path d="M6833 2843 c-25 -3 -33 -9 -33 -24 0 -15 -7 -19 -32 -20 -34 -1 -93
-16 -71 -18 7 -1 10 -8 7 -16 -4 -10 -13 -13 -25 -10 -21 7 -26 -9 -7 -21 6
-4 21 5 34 21 21 27 23 27 21 8 0 -12 -3 -20 -6 -18 -2 3 -10 0 -17 -6 -11 -9
-6 -20 26 -57 22 -24 40 -50 40 -56 0 -6 6 -23 14 -37 23 -45 15 -146 -18
-214 -32 -66 -67 -103 -136 -143 -38 -23 -56 -27 -125 -27 -53 0 -90 5 -110
16 -57 30 -80 44 -91 59 -7 8 -16 11 -21 7 -4 -5 1 -15 11 -23 11 -7 17 -17
13 -20 -3 -4 4 -15 16 -25 l22 -18 -27 -1 c-21 0 -28 -5 -28 -20 0 -18 4 -20
35 -14 33 6 35 4 35 -19 0 -23 5 -26 37 -29 27 -2 39 -8 41 -21 3 -14 -2 -18
-20 -15 -17 2 -22 -1 -20 -14 2 -10 -2 -18 -8 -18 -5 0 -10 5 -10 10 0 6 -6
10 -12 10 -7 -1 -3 -9 10 -19 12 -11 22 -26 22 -35 0 -10 -9 -16 -22 -16 -22
0 -23 -2 -20 -90 l3 -89 42 4 c23 3 79 7 124 9 46 3 87 8 93 11 5 3 10 1 10
-6 0 -8 3 -9 9 -4 5 6 11 38 14 73 4 47 2 66 -10 77 -8 8 -11 15 -6 16 4 0 -1
4 -12 8 -19 8 -19 8 3 20 19 10 22 9 22 -8 0 -19 1 -19 48 -4 26 9 55 21 64
28 16 11 16 13 -8 24 -23 10 -26 9 -20 -4 4 -13 2 -14 -14 -5 -25 13 -30 13
-26 -2 1 -7 1 -10 -1 -5 -3 4 -11 7 -19 7 -9 0 -13 -4 -10 -9 8 -12 -77 -8
-91 5 -7 7 -9 14 -6 18 4 3 -6 6 -20 6 -20 0 -27 5 -27 20 0 11 5 20 11 20 6
0 9 8 6 19 -2 10 1 18 7 18 56 -1 74 13 23 19 -12 1 -26 3 -32 4 -16 2 28 19
50 19 13 -1 15 -3 6 -6 -16 -7 40 -33 70 -33 15 0 19 -7 19 -40 l0 -40 -47 -1
c-42 -1 -44 -2 -18 -8 17 -4 41 -3 54 1 14 5 30 7 38 4 7 -3 13 1 13 9 0 8 5
15 10 15 6 0 10 -4 10 -9 0 -5 7 -12 16 -15 9 -3 12 -2 9 4 -8 13 14 80 26 80
5 0 9 7 9 15 0 8 7 15 15 15 8 0 22 11 31 24 8 14 25 26 37 28 12 2 21 9 20
15 -1 6 10 14 25 18 37 9 50 21 57 56 7 32 10 34 68 44 26 4 35 10 30 18 -4 7
-6 54 -4 105 3 88 2 94 -18 99 -33 9 -24 22 19 29 58 9 49 24 -13 24 -57 0
-69 8 -97 63 -7 15 -17 27 -22 27 -5 0 -7 -4 -4 -9 3 -5 -2 -15 -11 -22 -15
-12 -16 -12 -9 6 16 40 18 55 7 55 -6 0 -11 9 -11 21 0 16 -4 19 -20 14 -16
-5 -20 -2 -20 19 0 14 -3 25 -7 24 -5 0 -23 -3 -40 -5z m-83 -133 c0 -5 -2
-10 -4 -10 -3 0 -8 5 -11 10 -3 6 -1 10 4 10 6 0 11 -4 11 -10z m300 -320 c0
-4 -7 -7 -15 -6 -23 3 -26 12 -5 13 11 1 20 -2 20 -7z m-258 -52 c-6 -6 -12
-6 -17 3 -6 8 -4 10 5 4 9 -5 10 -1 6 16 -6 21 -6 22 5 6 7 -13 8 -22 1 -29z
m1 -56 c6 -29 5 -31 -8 -19 -8 8 -11 24 -8 36 7 27 8 25 16 -17z m-37 1 c-10
-10 -19 5 -10 18 6 11 8 11 12 0 2 -7 1 -15 -2 -18z m13 -26 c8 -11 1 -13 -39
-13 -28 0 -50 5 -50 9 0 5 11 7 24 5 14 -3 31 -1 38 3 16 11 14 11 27 -4z
m-64 -46 c3 -6 -12 -11 -32 -13 -23 -2 -37 -8 -36 -15 2 -7 -3 -10 -10 -7 -8
3 -14 12 -14 20 0 8 6 13 14 10 7 -3 13 -1 13 4 0 13 57 13 65 1z m-78 -336
c0 -8 -4 -15 -9 -15 -10 0 -11 14 -1 23 9 10 10 9 10 -8z"/>
<path d="M6287 2834 c-13 -14 -7 -24 21 -36 25 -11 26 -12 5 -15 -26 -5 -53
-33 -31 -33 8 0 19 5 25 11 6 6 16 10 23 7 6 -2 -10 -15 -36 -29 -30 -16 -48
-33 -50 -47 -2 -11 -10 -40 -18 -64 -13 -37 -13 -40 0 -24 7 11 14 25 14 32 0
20 85 101 131 125 24 12 69 25 99 29 l55 7 -75 2 c-42 0 -80 -3 -86 -9 -6 -6
-10 0 -9 18 0 23 -5 27 -30 30 -17 2 -34 0 -38 -4z"/>
<path d="M5960 2826 c0 -2 7 -9 15 -16 9 -7 15 -8 15 -2 0 5 -7 12 -15 16 -8
3 -15 4 -15 2z"/>
<path d="M2750 2789 c0 -6 -10 -8 -22 -5 -13 3 -17 3 -10 0 10 -5 9 -10 -4
-25 -30 -33 -10 -29 28 7 22 20 32 34 23 34 -8 0 -15 -5 -15 -11z"/>
<path d="M6570 2790 c-25 -8 -25 -8 -2 -9 13 -1 36 -8 52 -16 17 -9 30 -13 30
-11 0 7 -43 46 -49 45 -3 -1 -17 -5 -31 -9z"/>
<path d="M4984 2773 c-15 -30 -17 -2042 -3 -2060 7 -7 22 -13 33 -11 16 2 22
13 28 43 3 22 7 483 8 1024 l2 985 -22 18 c-28 22 -36 23 -46 1z"/>
<path d="M8931 2651 l0 -79 65 -7 c35 -4 82 -4 104 0 l40 7 0 73 c0 57 -3 74
-16 79 -9 3 -55 6 -104 6 l-88 0 -1 -79z"/>
<path d="M6021 2684 c-14 -31 -14 -35 0 -31 6 1 15 -8 19 -19 7 -19 5 -23 -21
-26 -33 -5 -40 7 -9 17 44 14 15 20 -85 17 l-105 -3 0 -60 c0 -32 4 -59 9 -59
5 0 9 22 8 48 -2 39 1 48 13 46 8 -2 34 -5 57 -7 23 -2 47 -8 55 -14 8 -7 33
-9 61 -6 37 4 47 10 47 24 0 10 5 21 10 24 16 10 11 26 -7 23 -10 -2 -17 3
-15 10 1 6 -3 12 -9 12 -5 0 -8 4 -4 9 3 5 1 12 -3 15 -5 3 -14 -6 -21 -20z"/>
<path d="M2568 2688 c-8 -21 2 -38 32 -53 34 -18 40 -18 40 -5 0 12 -50 70
-61 70 -4 0 -9 -6 -11 -12z"/>
<path d="M5110 2683 c8 -10 25 -31 37 -46 l23 -29 0 -943 0 -944 21 -12 c17
-9 25 -8 38 5 15 15 16 102 18 956 l3 940 -23 13 c-12 7 -46 28 -76 46 -36 21
-50 26 -41 14z"/>
<path d="M6064 2680 c0 -13 4 -16 10 -10 7 7 7 13 0 20 -6 6 -10 3 -10 -10z"/>
<path d="M6160 2657 c0 -19 10 -27 26 -20 21 8 17 33 -6 33 -11 0 -20 -6 -20
-13z"/>
<path d="M2832 2638 c-23 -28 -25 -65 -4 -86 39 -39 85 -7 80 55 -3 34 -6 38
-34 41 -17 2 -36 -3 -42 -10z"/>
<path d="M7134 2638 c-5 -8 -2 -9 9 -5 10 4 20 0 26 -11 9 -15 10 -14 11 6 0
24 -33 32 -46 10z"/>
<path d="M6100 2631 c0 -6 5 -13 10 -16 6 -3 10 1 10 9 0 9 -4 16 -10 16 -5 0
-10 -4 -10 -9z"/>
<path d="M5364 2273 l1 -258 23 -3 c45 -7 49 8 57 200 13 284 14 268 -15 288
-14 10 -35 21 -46 25 l-22 6 2 -258z"/>
<path d="M5817 2454 c-4 -4 -7 -14 -7 -23 0 -11 3 -12 11 -4 6 6 10 16 7 23
-2 6 -7 8 -11 4z"/>
<path d="M8932 2378 l3 -83 102 0 103 0 0 83 0 82 -105 0 -106 0 3 -82z"/>
<path d="M5810 2380 c0 -5 5 -10 11 -10 5 0 7 5 4 10 -3 6 -8 10 -11 10 -2 0
-4 -4 -4 -10z"/>
<path d="M5853 2373 c9 -2 25 -2 35 0 9 3 1 5 -18 5 -19 0 -27 -2 -17 -5z"/>
<path d="M6263 2315 c0 -8 4 -12 9 -9 5 3 6 10 3 15 -9 13 -12 11 -12 -6z"/>
<path d="M6014 2228 l-19 -23 23 19 c21 18 27 26 19 26 -2 0 -12 -10 -23 -22z"/>
<path d="M5957 2169 c-32 -36 -33 -47 -9 -56 9 -4 23 -14 31 -22 7 -9 6 -4 -3
11 -21 35 -20 38 5 33 12 -3 18 -1 15 3 -4 4 -12 8 -17 8 -5 1 -12 2 -16 3 -3
0 2 10 12 21 10 11 16 22 14 25 -3 2 -17 -9 -32 -26z"/>
<path d="M8756 2141 c-2 -9 -7 -59 -11 -113 l-7 -96 -51 -27 c-34 -18 -74 -28
-119 -32 l-66 -6 -4 -46 c-3 -25 -4 -46 -4 -46 1 0 83 1 184 3 l182 3 0 179
c0 178 0 180 -22 184 -65 13 -78 13 -82 -3z"/>
<path d="M7195 2121 c-17 -10 -39 -30 -48 -44 -34 -52 -14 -141 37 -165 25
-11 26 -16 26 -85 l0 -73 -43 -11 c-24 -7 -65 -28 -93 -48 -27 -19 -55 -38
-63 -42 -20 -9 -67 50 -76 94 -20 106 -155 92 -155 -16 0 -46 26 -71 75 -71
35 0 101 -41 109 -68 3 -9 -3 -40 -13 -67 l-19 -50 -56 2 c-35 1 -62 8 -72 17
-40 41 -102 -3 -89 -63 10 -48 25 -54 104 -42 97 15 111 14 111 -7 0 -10 9
-35 20 -57 11 -22 20 -44 20 -50 0 -6 -21 -32 -47 -57 -44 -43 -50 -46 -67
-32 -31 22 -65 17 -97 -15 -33 -33 -38 -75 -14 -121 34 -66 94 -78 150 -28 31
27 36 36 34 69 -3 34 2 44 36 77 l40 38 57 -42 c34 -25 74 -45 98 -49 l40 -7
0 -59 c0 -44 -4 -59 -14 -59 -24 0 -56 -50 -56 -87 0 -73 58 -128 123 -116 37
7 84 55 89 91 6 43 -10 90 -37 108 -43 28 -28 107 22 117 16 3 56 24 90 46 33
23 64 41 68 41 4 0 24 -15 44 -33 32 -29 36 -37 33 -75 -3 -34 2 -47 23 -67
21 -22 33 -26 72 -23 41 3 50 8 70 37 58 86 -11 197 -99 160 -28 -11 -32 -10
-65 23 l-35 36 12 53 c24 105 16 99 130 99 l100 0 48 -50 c43 -45 53 -50 91
-50 38 0 49 6 86 43 29 29 46 55 50 81 17 86 -48 186 -120 186 -53 0 -110 -36
-146 -92 l-31 -48 -94 0 -93 0 -16 52 c-8 28 -15 57 -15 64 0 7 21 30 46 52
38 34 50 40 77 35 49 -8 82 23 82 76 0 55 -29 84 -84 84 -53 0 -81 -25 -81
-70 0 -24 -10 -44 -36 -73 -41 -45 -50 -48 -78 -21 -29 27 -119 71 -145 71
-19 0 -21 5 -21 72 0 70 1 72 39 107 26 24 42 49 46 72 19 103 -93 184 -180
130z m135 -512 c60 -27 79 -45 106 -104 69 -146 -32 -304 -194 -305 -63 0 -98
16 -140 65 -46 51 -64 91 -64 141 0 168 146 270 292 203z m601 -100 c42 -22
40 -101 -1 -114 -35 -11 -60 12 -60 55 0 68 16 84 61 59z"/>
<path d="M2760 2090 c0 -5 5 -10 10 -10 6 0 10 5 10 10 0 6 -4 10 -10 10 -5 0
-10 -4 -10 -10z"/>
<path d="M2703 2076 c3 -7 0 -20 -6 -27 -10 -11 -9 -11 5 0 15 11 15 41 1 41
-3 0 -3 -6 0 -14z"/>
<path d="M5791 2018 c-6 -27 -11 -97 -11 -155 l0 -106 118 7 c64 4 141 9 170
13 l52 6 0 37 0 37 -67 6 c-38 4 -94 7 -125 7 l-58 0 0 58 c0 84 -15 129 -45
134 -22 5 -25 1 -34 -44z"/>
<path d="M2666 2043 c-13 -13 -6 -35 9 -29 8 3 15 1 15 -4 0 -5 -8 -11 -19
-15 -13 -4 -17 -12 -13 -30 2 -14 8 -27 12 -30 5 -3 6 4 3 16 -4 15 3 28 27
48 23 19 30 30 22 35 -8 4 -12 0 -12 -11 -1 -16 -3 -16 -19 4 -10 12 -21 19
-25 16z"/>
<path d="M6015 2040 c3 -5 11 -10 16 -10 6 0 7 5 4 10 -3 6 -11 10 -16 10 -6
0 -7 -4 -4 -10z"/>
<path d="M6370 2020 c0 -5 5 -10 10 -10 6 0 10 5 10 10 0 6 -4 10 -10 10 -5 0
-10 -4 -10 -10z"/>
<path d="M6120 1955 c-7 -9 -11 -17 -9 -20 3 -2 10 5 17 15 14 24 10 26 -8 5z"/>
<path d="M3032 1897 c-26 -28 -28 -62 -5 -76 13 -7 25 -3 50 16 32 24 32 26
17 54 -18 35 -33 37 -62 6z"/>
<path d="M5362 1878 c-31 -31 0 -108 43 -108 27 0 65 35 65 59 -1 45 -77 80
-108 49z"/>
<path d="M4170 1775 c0 -29 4 -36 25 -41 33 -8 55 1 55 24 0 25 -31 52 -58 52
-18 0 -22 -6 -22 -35z"/>
<path d="M2632 1784 c-27 -19 -55 -71 -48 -90 9 -23 62 -16 95 12 37 31 38 44
8 72 -28 26 -27 26 -55 6z"/>
<path d="M2930 1783 c-19 -7 -70 -54 -70 -65 0 -4 14 -15 31 -24 31 -15 32
-15 65 17 19 18 34 39 34 46 0 10 -32 35 -42 32 -2 0 -10 -3 -18 -6z"/>
<path d="M3179 1751 c-36 -36 -37 -56 -4 -77 25 -16 27 -16 55 11 34 33 38 55
12 78 -25 23 -29 22 -63 -12z"/>
<path d="M4017 1662 c-38 -41 -4 -112 53 -112 31 0 70 39 70 70 0 48 -90 79
-123 42z"/>
<path d="M2750 1622 c-46 -41 -46 -49 -2 -81 l27 -19 44 38 43 38 -21 31 c-12
17 -28 31 -35 31 -8 0 -33 -17 -56 -38z"/>
<path d="M3038 1621 c-36 -32 -34 -50 9 -78 20 -13 25 -11 63 23 l41 37 -22
23 c-30 32 -52 30 -91 -5z"/>
<path d="M2482 1606 c-27 -40 -28 -56 -3 -56 41 0 67 54 38 78 -9 8 -18 3 -35
-22z"/>
<path d="M3320 1605 c-33 -34 -33 -35 -15 -55 25 -28 56 -25 88 8 32 33 33 43
9 65 -27 25 -44 21 -82 -18z"/>
<path d="M8146 1593 c-8 -46 5 -95 24 -99 8 -2 27 -6 42 -10 20 -5 36 1 62 21
54 41 42 88 -13 53 -16 -10 -25 -8 -55 13 -20 13 -36 32 -36 42 0 32 -18 17
-24 -20z"/>
<path d="M2320 1600 c-21 -21 -27 -60 -10 -60 6 0 10 -6 10 -14 0 -46 82 -11
88 38 7 54 -48 76 -88 36z"/>
<path d="M6069 1612 c-69 -2 -77 -5 -83 -25 -3 -12 -6 -168 -6 -347 l0 -325
222 2 c123 2 260 5 306 9 l82 6 0 339 0 339 -209 0 c-115 0 -215 1 -223 3 -7
1 -47 1 -89 -1z m356 -102 l70 0 0 -244 c1 -238 0 -245 -20 -250 -11 -3 -107
-6 -212 -6 l-193 0 0 257 0 256 143 -6 c78 -4 174 -7 212 -7z"/>
<path d="M6212 1363 c-22 -4 -23 -8 -20 -96 3 -88 4 -92 27 -95 13 -2 39 -1
57 3 28 5 34 10 34 30 0 21 5 25 29 25 16 0 36 3 45 6 11 4 16 1 16 -11 0 -9
4 -13 10 -10 5 3 7 20 4 38 -3 25 -2 28 5 12 5 -11 10 -15 11 -10 0 6 3 27 6
48 l6 37 -60 0 c-44 0 -61 4 -66 15 -5 15 -50 18 -104 8z m183 -93 c3 -5 1
-10 -4 -10 -6 0 -11 5 -11 10 0 6 2 10 4 10 3 0 8 -4 11 -10z"/>
<path d="M3697 1505 c-32 -13 -73 -39 -92 -58 -33 -33 -46 -55 -25 -42 6 3 10
1 10 -5 0 -7 7 -10 15 -6 17 6 35 -22 27 -42 -3 -11 0 -12 17 -3 11 7 21 16
21 20 0 5 14 18 31 28 24 16 39 18 75 13 65 -10 105 -52 111 -117 5 -47 3 -52
-34 -91 -34 -35 -46 -42 -79 -42 -21 0 -51 6 -66 14 -21 11 -26 11 -22 1 3 -7
15 -15 26 -18 11 -3 17 -10 13 -16 -3 -6 0 -11 8 -11 18 0 27 -21 27 -62 0
-31 0 -31 45 -25 92 13 150 60 194 157 56 123 -13 270 -148 313 -67 21 -83 21
-154 -8z m-37 -135 c0 -13 -1 -13 -10 0 -5 8 -10 22 -10 30 0 13 1 13 10 0 5
-8 10 -22 10 -30z"/>
<path d="M2608 1474 c-21 -25 -38 -51 -38 -58 0 -19 45 -40 62 -30 27 16 78
63 78 71 0 10 -53 63 -61 62 -2 0 -21 -21 -41 -45z"/>
<path d="M2898 1482 l-43 -40 24 -26 c31 -33 38 -32 79 4 38 36 40 49 8 79
l-25 23 -43 -40z"/>
<path d="M3176 1468 c-44 -51 -45 -64 -6 -73 28 -6 45 1 114 47 12 8 -41 68
-60 68 -7 0 -29 -19 -48 -42z"/>
<path d="M2756 1338 c-20 -23 -36 -44 -36 -47 0 -3 12 -19 26 -35 l25 -29 40
39 c21 21 39 43 39 50 0 14 -39 64 -50 64 -5 0 -25 -19 -44 -42z"/>
<path d="M2506 1355 c-20 -20 -20 -23 0 -42 21 -21 49 -5 49 28 0 29 -26 36
-49 14z"/>
<path d="M3075 1358 c-34 -18 -65 -51 -65 -69 0 -9 11 -24 24 -32 22 -15 25
-14 65 27 l41 42 -22 21 c-19 17 -27 20 -43 11z"/>
<path d="M3315 1320 l-39 -40 24 -25 c31 -33 42 -32 79 11 31 35 32 43 3 77
-20 23 -22 23 -67 -23z"/>
<path d="M2905 1189 l-47 -51 32 -20 33 -19 33 32 c39 38 40 44 16 82 l-19 28
-48 -52z"/>
<path d="M2637 1202 c-32 -33 -34 -53 -8 -76 18 -17 21 -17 45 -1 30 20 44 60
29 84 -16 26 -37 24 -66 -7z"/>
<path d="M3176 1199 c-43 -37 -45 -56 -9 -87 l27 -23 34 34 c33 34 34 35 18
65 -23 45 -31 46 -70 11z"/>
<path d="M2802 1075 c-35 -29 -41 -55 -17 -75 18 -15 39 -1 62 43 13 26 13 31
0 44 -12 12 -18 11 -45 -12z"/>
<path d="M3026 1042 c-22 -32 -39 -98 -19 -79 3 4 11 -1 18 -9 10 -15 16 -12
53 23 48 46 50 55 20 83 -31 28 -42 25 -72 -18z"/>
<path d="M3316 1041 l-38 -38 30 -22 c41 -28 57 -27 83 10 21 31 22 31 2 57
-10 14 -24 27 -29 29 -5 2 -27 -14 -48 -36z"/>
<path d="M4018 959 c-27 -15 -24 -83 4 -103 32 -22 61 -20 86 7 26 27 28 54 6
85 -16 24 -65 30 -96 11z"/>
<path d="M3480 925 c-17 -20 -3 -73 21 -80 24 -8 59 20 59 46 0 40 -55 64 -80
34z"/>
<path d="M3210 905 c0 -28 25 -44 42 -27 9 9 7 17 -7 32 -24 27 -35 25 -35 -5z"/>
<path d="M5878 866 c-22 -16 -23 -35 -2 -64 21 -30 59 -29 80 3 35 53 -26 101
-78 61z"/>
<path d="M5388 849 c-22 -12 -23 -52 -2 -73 20 -20 68 -21 84 -1 18 21 5 60
-25 73 -31 14 -35 14 -57 1z"/>
<path d="M4570 795 c0 -8 7 -15 15 -15 8 0 15 7 15 15 0 8 -7 15 -15 15 -8 0
-15 -7 -15 -15z"/>
</g>
</svg>
